<svg xmlns="http://www.w3.org/2000/svg" xmlns:xlink="http://www.w3.org/1999/xlink" width="800" height="606">
  <rect width="100%" height="100%" fill="#ffffff"/>
  <defs>
    <g id="a0"><radialGradient id="g0" cx=".5" cy=".5" fx=".33" fy=".33" r=".66"><stop offset="0%" stop-color="#cacaca"/><stop offset="100%" stop-color="#969696"/></radialGradient><circle cx="0" cy="0" r="31.7" fill="url(#g0)" stroke="#2d2d2d" stroke-width="5.9"/></g>
    <g id="a1"><radialGradient id="g1" cx=".5" cy=".5" fx=".33" fy=".33" r=".66"><stop offset="0%" stop-color="#cecece"/><stop offset="100%" stop-color="#9e9e9e"/></radialGradient><circle cx="0" cy="0" r="31.7" fill="url(#g1)" stroke="#444444" stroke-width="5.9"/></g>
    <g id="a2"><radialGradient id="g2" cx=".5" cy=".5" fx=".33" fy=".33" r=".66"><stop offset="0%" stop-color="#c5c5c5"/><stop offset="100%" stop-color="#8c8c8c"/></radialGradient><circle cx="0" cy="0" r="31.7" fill="url(#g2)" stroke="#0d0d0d" stroke-width="5.9"/></g>
    <g id="a3"><radialGradient id="g3" cx=".5" cy=".5" fx=".33" fy=".33" r=".66"><stop offset="0%" stop-color="#c3c3c3"/><stop offset="100%" stop-color="#888888"/></radialGradient><circle cx="0" cy="0" r="31.7" fill="url(#g3)" stroke="#000000" stroke-width="5.9"/></g>
    <g id="a4"><radialGradient id="g4" cx=".5" cy=".5" fx=".33" fy=".33" r=".66"><stop offset="0%" stop-color="#c4c4c4"/><stop offset="100%" stop-color="#8a8a8a"/></radialGradient><circle cx="0" cy="0" r="31.7" fill="url(#g4)" stroke="#060606" stroke-width="5.9"/></g>
    <g id="a5"><radialGradient id="g5" cx=".5" cy=".5" fx=".33" fy=".33" r=".66"><stop offset="0%" stop-color="#c8c8c8"/><stop offset="100%" stop-color="#939393"/></radialGradient><circle cx="0" cy="0" r="31.7" fill="url(#g5)" stroke="#242424" stroke-width="5.9"/></g>
    <g id="a6"><radialGradient id="g6" cx=".5" cy=".5" fx=".33" fy=".33" r=".66"><stop offset="0%" stop-color="#d2d2d2"/><stop offset="100%" stop-color="#a7a7a7"/></radialGradient><circle cx="0" cy="0" r="31.7" fill="url(#g6)" stroke="#606060" stroke-width="5.9"/></g>
    <g id="a7"><radialGradient id="g7" cx=".5" cy=".5" fx=".33" fy=".33" r=".66"><stop offset="0%" stop-color="#dbdbdb"/><stop offset="100%" stop-color="#b9b9b9"/></radialGradient><circle cx="0" cy="0" r="31.7" fill="url(#g7)" stroke="#969696" stroke-width="5.9"/></g>
    <g id="a8"><radialGradient id="g8" cx=".5" cy=".5" fx=".33" fy=".33" r=".66"><stop offset="0%" stop-color="#7388fa"/><stop offset="100%" stop-color="#2d46c8"/></radialGradient><circle cx="0" cy="0" r="29.8" fill="url(#g8)" stroke="#0c0c0c" stroke-width="5.9"/></g>
    <g id="a9"><radialGradient id="g9" cx=".5" cy=".5" fx=".33" fy=".33" r=".66"><stop offset="0%" stop-color="#7c90fa"/><stop offset="100%" stop-color="#3b52cb"/></radialGradient><circle cx="0" cy="0" r="29.8" fill="url(#g9)" stroke="#232323" stroke-width="5.9"/></g>
    <g id="a10"><radialGradient id="g10" cx=".5" cy=".5" fx=".33" fy=".33" r=".66"><stop offset="0%" stop-color="#6e84fa"/><stop offset="100%" stop-color="#2640c6"/></radialGradient><circle cx="0" cy="0" r="29.8" fill="url(#g10)" stroke="#010101" stroke-width="5.9"/></g>
    <g id="a11"><radialGradient id="g11" cx=".5" cy=".5" fx=".33" fy=".33" r=".66"><stop offset="0%" stop-color="#92a2fb"/><stop offset="100%" stop-color="#5c70d4"/></radialGradient><circle cx="0" cy="0" r="29.8" fill="url(#g11)" stroke="#5b5b5b" stroke-width="5.9"/></g>
    <g id="a12"><radialGradient id="g12" cx=".5" cy=".5" fx=".33" fy=".33" r=".66"><stop offset="0%" stop-color="#ff6262"/><stop offset="100%" stop-color="#cf1d1d"/></radialGradient><circle cx="0" cy="0" r="28.4" fill="url(#g12)" stroke="#1c1c1c" stroke-width="5.9"/></g>
    <g id="a13"><radialGradient id="g13" cx=".5" cy=".5" fx=".33" fy=".33" r=".66"><stop offset="0%" stop-color="#ff9d9d"/><stop offset="100%" stop-color="#e17272"/></radialGradient><circle cx="0" cy="0" r="28.4" fill="url(#g13)" stroke="#9b9b9b" stroke-width="5.9"/></g>
  </defs>
  <defs>
    <radialGradient id="mo_pos_front" cx=".5" cy=".5" fx=".33" fy=".33" r=".66"><stop offset="0%" stop-color="#5b7ebb"/><stop offset="100%" stop-color="#163263"/></radialGradient>
    <radialGradient id="mo_neg_front" cx=".5" cy=".5" fx=".33" fy=".33" r=".66"><stop offset="0%" stop-color="#a3506a"/><stop offset="100%" stop-color="#4f0d22"/></radialGradient>
  </defs>
  <g opacity="0.60">
    <path d="M 433.6 160.0 C 435.4 163.5 436.7 167.2 437.2 171.0 C 437.8 174.7 437.3 178.7 437.1 182.5 C 436.8 186.3 436.9 190.2 435.6 193.8 C 434.4 197.4 432.0 200.9 429.6 204.1 C 427.2 207.3 424.4 210.4 421.2 212.9 C 417.9 215.5 413.9 217.5 410.0 219.2 C 406.1 221.0 401.9 223.0 397.7 223.5 C 393.4 224.0 388.8 222.8 384.3 222.3 C 379.9 221.9 375.2 222.1 371.2 220.8 C 367.1 219.4 363.7 216.6 360.2 214.2 C 356.7 211.8 353.5 209.1 350.4 206.3 C 347.4 203.5 344.3 200.6 342.0 197.4 C 339.7 194.2 337.7 190.7 336.4 187.1 C 335.1 183.5 334.5 179.5 334.0 175.8 C 333.6 172.0 333.1 168.2 333.7 164.5 C 334.3 160.7 336.1 157.0 337.8 153.5 C 339.6 150.0 341.4 146.3 344.2 143.5 C 347.1 140.7 351.1 138.5 354.9 136.6 C 358.7 134.7 363.0 133.0 367.2 132.2 C 371.5 131.3 375.9 131.4 380.3 131.5 C 384.8 131.5 389.3 131.8 393.7 132.5 C 398.0 133.2 402.4 134.1 406.4 135.7 C 410.4 137.2 414.3 139.4 417.7 141.8 C 421.1 144.2 424.2 147.1 426.8 150.1 C 429.5 153.2 431.9 156.6 433.6 160.0 Z" fill="#6687c0" fill-rule="evenodd" stroke="none"/>
  </g>
  <g opacity="0.60">
    <path d="M 460.1 402.2 C 461.1 405.9 461.7 409.8 461.9 413.5 C 462.0 417.2 462.0 421.1 461.0 424.7 C 460.0 428.3 458.0 431.8 456.1 435.2 C 454.1 438.6 451.9 441.9 449.3 444.9 C 446.7 447.9 443.5 450.7 440.3 453.2 C 437.0 455.7 433.5 458.3 429.8 460.1 C 426.0 461.9 421.7 463.0 417.6 464.1 C 413.4 465.2 409.0 466.2 404.7 466.8 C 400.4 467.4 396.0 467.6 391.6 467.6 C 387.2 467.6 382.8 467.2 378.4 466.9 C 374.0 466.5 369.6 466.1 365.3 465.4 C 361.0 464.6 356.6 463.7 352.7 462.2 C 348.8 460.6 344.8 458.6 341.8 456.0 C 338.9 453.4 336.4 449.8 335.0 446.4 C 333.7 442.9 334.0 439.0 333.9 435.2 C 333.8 431.5 334.7 427.6 334.4 423.8 C 334.2 420.1 333.4 416.4 332.5 412.6 C 331.7 408.9 330.9 405.1 329.5 401.6 C 328.1 398.0 326.4 394.6 324.3 391.3 C 322.2 388.0 319.3 385.0 316.9 381.8 C 314.5 378.7 312.0 375.5 309.9 372.2 C 307.7 368.9 305.8 365.5 304.1 362.0 C 302.4 358.5 300.7 354.9 299.7 351.3 C 298.7 347.6 298.6 343.8 298.2 340.0 C 297.8 336.2 297.1 332.4 297.3 328.6 C 297.4 324.9 298.2 321.1 299.0 317.4 C 299.8 313.7 300.7 309.9 302.2 306.3 C 303.7 302.8 305.5 299.3 308.0 296.2 C 310.5 293.1 313.8 290.4 317.0 287.9 C 320.3 285.3 323.8 283.0 327.4 280.8 C 331.0 278.6 334.6 276.3 338.6 274.8 C 342.5 273.2 346.8 272.3 351.1 271.5 C 355.3 270.8 359.9 270.6 364.2 270.6 C 368.6 270.6 373.0 270.8 377.2 271.5 C 381.5 272.3 385.7 273.7 389.7 275.2 C 393.8 276.6 397.9 278.1 401.6 280.0 C 405.3 282.0 408.8 284.5 412.0 287.0 C 415.3 289.6 418.4 292.3 421.1 295.2 C 423.9 298.2 426.5 301.3 428.5 304.7 C 430.4 308.1 431.6 311.8 432.9 315.4 C 434.2 319.0 435.6 322.7 436.3 326.4 C 437.1 330.1 437.2 333.9 437.6 337.7 C 438.0 341.5 438.1 345.3 438.7 349.1 C 439.3 352.8 440.3 356.5 441.2 360.2 C 442.1 363.9 442.6 367.8 444.0 371.3 C 445.4 374.9 447.6 378.3 449.6 381.6 C 451.6 385.0 454.3 388.1 456.0 391.5 C 457.8 395.0 459.1 398.6 460.1 402.2 Z" fill="#a95b74" fill-rule="evenodd" stroke="none"/>
  </g>
  <g opacity="0.60">
    <path d="M 777.5 318.6 C 778.4 322.4 779.6 326.1 779.4 329.8 C 779.2 333.6 777.5 337.4 776.2 341.0 C 775.0 344.7 774.0 348.5 772.1 351.9 C 770.1 355.3 767.3 358.4 764.5 361.4 C 761.7 364.4 758.7 367.2 755.4 369.8 C 752.1 372.4 748.7 375.1 744.8 376.8 C 741.0 378.5 736.5 379.0 732.1 379.8 C 727.8 380.7 723.2 381.9 718.9 381.7 C 714.6 381.5 710.4 380.2 706.3 378.8 C 702.3 377.5 698.2 375.6 694.5 373.5 C 690.8 371.4 687.1 369.1 684.1 366.4 C 681.0 363.7 678.3 360.5 676.0 357.2 C 673.8 353.9 672.1 350.3 670.5 346.8 C 668.9 343.2 667.5 339.5 666.5 335.8 C 665.5 332.1 664.5 328.3 664.6 324.6 C 664.7 320.8 666.0 317.0 667.0 313.3 C 668.0 309.5 668.6 305.7 670.3 302.2 C 672.0 298.7 674.4 295.3 677.0 292.2 C 679.7 289.2 682.8 286.3 686.2 284.0 C 689.7 281.7 693.8 279.9 697.8 278.4 C 701.8 276.8 706.2 275.2 710.4 274.5 C 714.7 273.9 719.0 274.1 723.4 274.5 C 727.7 274.9 732.2 275.9 736.4 277.1 C 740.6 278.3 744.7 279.8 748.4 281.8 C 752.2 283.7 755.8 286.2 759.0 288.8 C 762.2 291.4 765.2 294.4 767.7 297.5 C 770.3 300.6 772.5 304.0 774.1 307.5 C 775.7 311.0 776.6 314.9 777.5 318.6 Z" fill="#a95b74" fill-rule="evenodd" stroke="none"/>
  </g>
  <g opacity="0.60">
    <path d="M 274.9 410.7 C 275.1 414.4 275.2 418.2 274.9 421.9 C 274.6 425.7 274.0 429.4 273.2 433.1 C 272.5 436.8 271.9 440.5 270.4 444.0 C 268.9 447.5 266.4 450.7 264.3 453.9 C 262.1 457.2 259.8 460.4 257.5 463.6 C 255.2 466.8 252.9 470.0 250.2 472.9 C 247.5 475.8 244.7 479.2 241.1 481.0 C 237.5 482.8 232.8 483.0 228.6 483.7 C 224.3 484.4 219.7 485.8 215.6 485.4 C 211.5 485.0 207.7 482.9 203.9 481.2 C 200.1 479.5 196.3 477.4 192.8 475.2 C 189.2 473.1 185.7 470.9 182.5 468.3 C 179.4 465.7 176.6 462.8 174.0 459.8 C 171.3 456.8 168.7 453.8 166.6 450.5 C 164.5 447.2 162.4 443.8 161.6 440.2 C 160.8 436.6 161.5 432.7 161.7 429.0 C 161.9 425.2 161.7 421.4 162.7 417.8 C 163.6 414.1 165.9 410.8 167.6 407.3 C 169.3 403.8 171.4 400.5 172.6 396.9 C 173.9 393.3 174.5 389.6 175.3 385.9 C 176.1 382.2 177.1 378.5 177.6 374.8 C 178.1 371.1 178.2 367.3 178.3 363.6 C 178.5 359.8 178.1 356.0 178.5 352.3 C 178.9 348.6 179.7 344.9 180.7 341.2 C 181.7 337.6 182.8 333.9 184.4 330.4 C 186.0 326.9 187.8 323.5 190.3 320.4 C 192.7 317.3 195.8 314.6 199.0 312.0 C 202.1 309.4 205.5 306.7 209.2 305.0 C 212.9 303.2 217.1 302.4 221.3 301.6 C 225.5 300.8 230.1 300.1 234.3 300.2 C 238.6 300.3 242.8 301.0 246.8 302.2 C 250.9 303.4 254.7 305.5 258.4 307.4 C 262.2 309.3 266.1 311.2 269.3 313.7 C 272.5 316.1 275.7 318.9 277.8 322.1 C 279.9 325.2 280.8 329.1 281.7 332.7 C 282.6 336.3 283.2 340.1 283.4 343.9 C 283.5 347.6 283.3 351.3 282.7 355.1 C 282.2 358.8 281.1 362.4 280.2 366.1 C 279.4 369.8 278.5 373.5 277.8 377.2 C 277.0 380.9 276.2 384.6 275.6 388.3 C 275.0 392.0 274.3 395.7 274.2 399.4 C 274.1 403.2 274.8 406.9 274.9 410.7 Z" fill="#6687c0" fill-rule="evenodd" stroke="none"/>
  </g>
  <g opacity="0.60">
    <path d="M 618.8 411.2 C 620.1 414.8 621.1 418.4 621.5 422.1 C 622.0 425.8 621.7 429.7 621.5 433.4 C 621.3 437.1 621.1 440.9 620.3 444.5 C 619.5 448.2 617.9 451.8 616.5 455.3 C 615.0 458.8 613.6 462.4 611.5 465.7 C 609.5 469.0 607.0 472.1 604.4 475.1 C 601.7 478.1 598.8 480.9 595.8 483.6 C 592.7 486.3 589.5 488.9 586.1 491.2 C 582.7 493.5 579.0 495.5 575.2 497.4 C 571.4 499.2 567.5 501.2 563.4 502.3 C 559.4 503.4 555.1 503.7 550.8 503.8 C 546.5 503.9 542.1 503.3 537.8 502.7 C 533.5 502.2 529.1 501.6 525.0 500.6 C 520.8 499.6 516.7 498.1 512.7 496.6 C 508.8 495.0 504.8 493.4 501.1 491.4 C 497.5 489.4 494.1 487.0 490.8 484.5 C 487.6 482.0 484.5 479.3 481.8 476.4 C 479.0 473.5 476.2 470.5 474.1 467.2 C 472.0 464.0 470.6 460.5 469.2 456.9 C 467.8 453.4 466.3 449.7 465.7 446.0 C 465.1 442.4 465.2 438.7 465.6 435.0 C 466.0 431.3 466.9 427.5 467.9 423.9 C 468.9 420.3 470.1 416.6 471.8 413.2 C 473.5 409.8 476.0 406.7 478.1 403.4 C 480.2 400.1 482.1 396.6 484.5 393.5 C 486.8 390.4 489.5 387.3 492.5 384.7 C 495.5 382.0 499.0 379.7 502.5 377.5 C 506.0 375.3 509.8 373.3 513.5 371.4 C 517.3 369.5 521.0 367.3 525.0 366.0 C 529.0 364.8 533.2 364.2 537.5 363.9 C 541.8 363.7 546.3 363.9 550.6 364.4 C 554.9 364.9 559.1 365.6 563.2 366.9 C 567.2 368.2 570.9 370.3 574.8 372.1 C 578.6 373.9 582.4 375.7 586.2 377.6 C 589.9 379.5 593.8 381.4 597.2 383.7 C 600.6 386.0 603.8 388.6 606.6 391.4 C 609.3 394.3 611.6 397.6 613.6 400.9 C 615.7 404.2 617.5 407.7 618.8 411.2 Z" fill="#6687c0" fill-rule="evenodd" stroke="none"/>
  </g>
  <use x="398.1" y="142.9" xlink:href="#a13"/>
  <line x1="415.7" y1="156.0" x2="436.7" y2="193.0" stroke="#454545" stroke-width="10.3" stroke-linecap="round"/>
  <line x1="400.4" y1="164.8" x2="421.3" y2="201.7" stroke="#454545" stroke-width="10.3" stroke-linecap="round"/>
  <use x="644.3" y="151.5" xlink:href="#a7"/>
  <line x1="627.4" y1="169.2" x2="582.4" y2="216.4" stroke="#434343" stroke-width="14.7" stroke-linecap="round"/>
  <use x="440.1" y="216.9" xlink:href="#a6"/>
  <line x1="468.4" y1="220.5" x2="539.9" y2="229.7" stroke="#343434" stroke-width="14.7" stroke-linecap="round"/>
  <line x1="425.5" y1="234.3" x2="388.7" y2="278.2" stroke="#262626" stroke-width="14.7" stroke-linecap="round"/>
  <use x="566.5" y="233.1" xlink:href="#a11"/>
  <line x1="578.0" y1="248.8" x2="608.9" y2="291.1" stroke="#222222" stroke-width="14.7" stroke-linecap="round"/>
  <use x="157.6" y="241.2" xlink:href="#a1"/>
  <line x1="178.3" y1="256.2" x2="231.9" y2="295.1" stroke="#1c1c1c" stroke-width="14.7" stroke-linecap="round"/>
  <use x="374.1" y="295.7" xlink:href="#a0"/>
  <line x1="347.0" y1="307.6" x2="278.7" y2="315.1" stroke="#161616" stroke-width="10.3" stroke-linecap="round" stroke-dasharray="10.3,20.6"/>
  <line x1="345.1" y1="290.0" x2="276.7" y2="297.6" stroke="#161616" stroke-width="10.3" stroke-linecap="round"/>
  <line x1="393.9" y1="309.8" x2="423.0" y2="354.2" stroke="#0f0f0f" stroke-width="10.3" stroke-linecap="round"/>
  <line x1="379.1" y1="319.5" x2="408.1" y2="363.9" stroke="#0f0f0f" stroke-width="10.3" stroke-linecap="round" stroke-dasharray="10.3,20.6"/>
  <use x="621.1" y="307.7" xlink:href="#a5"/>
  <line x1="648.7" y1="297.3" x2="702.0" y2="294.4" stroke="#121212" stroke-width="10.3" stroke-linecap="round"/>
  <line x1="649.7" y1="315.0" x2="703.0" y2="312.0" stroke="#121212" stroke-width="10.3" stroke-linecap="round"/>
  <line x1="605.6" y1="327.4" x2="566.3" y2="377.1" stroke="#0c0c0c" stroke-width="14.7" stroke-linecap="round"/>
  <use x="251.3" y="309.3" xlink:href="#a9"/>
  <line x1="256.4" y1="330.1" x2="247.3" y2="378.2" stroke="#0a0a0a" stroke-width="10.3" stroke-linecap="round" stroke-dasharray="10.3,20.6"/>
  <line x1="239.0" y1="326.8" x2="229.9" y2="374.9" stroke="#0a0a0a" stroke-width="10.3" stroke-linecap="round"/>
  <use x="727.7" y="301.8" xlink:href="#a12"/>
  <use x="428.0" y="378.0" xlink:href="#a2"/>
  <line x1="456.2" y1="382.0" x2="525.2" y2="391.8" stroke="#070707" stroke-width="14.7" stroke-linecap="round"/>
  <line x1="413.1" y1="399.4" x2="365.5" y2="433.2" stroke="#030303" stroke-width="10.3" stroke-linecap="round"/>
  <line x1="402.8" y1="385.0" x2="355.3" y2="418.8" stroke="#030303" stroke-width="10.3" stroke-linecap="round" stroke-dasharray="10.3,20.6"/>
  <use x="551.7" y="395.6" xlink:href="#a8"/>
  <line x1="562.7" y1="409.0" x2="593.4" y2="446.6" stroke="#010101" stroke-width="14.7" stroke-linecap="round"/>
  <use x="234.7" y="396.9" xlink:href="#a4"/>
  <line x1="263.3" y1="398.7" x2="321.0" y2="421.7" stroke="#010101" stroke-width="10.3" stroke-linecap="round" stroke-dasharray="10.3,20.6"/>
  <line x1="256.8" y1="415.2" x2="314.4" y2="438.1" stroke="#010101" stroke-width="10.3" stroke-linecap="round"/>
  <use x="341.5" y="439.4" xlink:href="#a10"/>
  <use x="605.0" y="460.8" xlink:href="#a3"/>
  <g opacity="0.60">
    <path d="M 433.6 110.8 C 435.8 114.1 437.9 117.7 438.9 121.3 C 440.0 125.0 439.6 128.9 439.7 132.7 C 439.9 136.5 440.6 140.5 439.9 144.2 C 439.2 147.9 437.5 151.6 435.6 155.0 C 433.7 158.4 431.3 161.8 428.5 164.7 C 425.7 167.5 422.3 170.1 418.8 172.3 C 415.2 174.5 411.2 176.5 407.1 177.8 C 403.0 179.1 398.6 179.8 394.2 180.1 C 389.9 180.4 385.3 179.9 380.9 179.5 C 376.5 179.1 372.0 178.9 367.9 177.6 C 363.8 176.4 359.8 174.4 356.2 172.2 C 352.6 170.0 349.3 167.3 346.4 164.4 C 343.6 161.5 341.3 158.1 339.4 154.7 C 337.5 151.3 335.6 147.7 335.1 144.0 C 334.7 140.3 336.2 136.4 336.9 132.6 C 337.6 128.9 337.8 124.9 339.4 121.5 C 341.0 118.0 344.1 115.0 346.7 111.9 C 349.4 108.8 352.1 105.8 355.2 103.0 C 358.2 100.2 361.4 97.3 365.0 95.3 C 368.7 93.3 372.8 91.7 376.9 90.7 C 381.1 89.7 385.8 89.3 390.2 89.2 C 394.5 89.0 399.0 88.9 403.2 89.8 C 407.3 90.7 411.4 92.7 415.2 94.6 C 419.0 96.6 422.7 98.9 425.8 101.6 C 428.8 104.3 431.4 107.5 433.6 110.8 Z" fill="url(#mo_neg_front)" fill-rule="evenodd" stroke="none"/>
  </g>
  <g opacity="0.60">
    <path d="M 460.1 330.4 C 460.9 334.1 461.5 337.9 462.0 341.7 C 462.5 345.4 463.2 349.2 463.1 353.0 C 463.0 356.7 462.2 360.6 461.5 364.3 C 460.7 368.0 460.1 371.9 458.5 375.3 C 456.8 378.7 454.1 381.9 451.4 384.8 C 448.8 387.8 445.7 390.6 442.5 393.2 C 439.3 395.8 436.0 398.6 432.3 400.5 C 428.7 402.5 424.5 403.9 420.3 404.9 C 416.1 405.9 411.6 406.5 407.2 406.7 C 402.9 407.0 398.5 407.1 394.3 406.4 C 390.0 405.7 385.9 404.0 381.9 402.4 C 377.9 400.8 373.8 399.2 370.3 396.9 C 366.8 394.7 363.8 391.8 360.8 389.0 C 357.8 386.2 355.0 383.3 352.6 380.1 C 350.1 377.0 348.2 373.5 346.1 370.2 C 344.1 366.8 342.2 363.4 340.2 360.0 C 338.2 356.6 336.3 353.2 334.0 349.9 C 331.7 346.7 328.8 343.8 326.4 340.6 C 324.0 337.4 321.6 334.2 319.3 331.0 C 317.0 327.7 314.6 324.5 312.6 321.2 C 310.5 317.8 308.6 314.4 307.1 310.8 C 305.6 307.3 304.5 303.6 303.7 299.9 C 302.8 296.2 302.4 292.3 302.0 288.6 C 301.6 284.8 301.4 281.0 301.5 277.2 C 301.6 273.5 302.1 269.6 302.6 265.9 C 303.2 262.1 303.8 258.3 304.9 254.7 C 306.0 251.0 307.5 247.4 309.3 244.0 C 311.1 240.5 313.2 237.1 315.7 234.0 C 318.2 231.0 321.3 228.2 324.5 225.5 C 327.6 222.9 331.0 220.4 334.5 218.2 C 338.1 215.9 341.7 213.6 345.7 212.1 C 349.7 210.6 354.2 209.9 358.4 208.9 C 362.7 208.0 367.0 206.4 371.3 206.3 C 375.6 206.2 380.0 207.7 384.3 208.5 C 388.6 209.3 393.1 209.7 397.1 211.2 C 401.1 212.7 404.6 215.2 408.1 217.5 C 411.6 219.7 414.9 222.3 418.1 224.9 C 421.3 227.5 424.4 230.2 427.2 233.2 C 430.0 236.1 432.5 239.3 434.8 242.5 C 437.0 245.7 439.2 249.1 440.8 252.6 C 442.4 256.1 443.5 259.8 444.3 263.5 C 445.2 267.2 445.3 271.1 445.9 274.8 C 446.4 278.6 447.0 282.4 447.7 286.1 C 448.4 289.9 449.3 293.6 450.3 297.3 C 451.2 301.0 452.4 304.7 453.5 308.3 C 454.6 312.0 455.9 315.6 457.0 319.3 C 458.1 323.0 459.3 326.7 460.1 330.4 Z" fill="url(#mo_pos_front)" fill-rule="evenodd" stroke="none"/>
  </g>
  <g opacity="0.60">
    <path d="M 751.1 265.0 C 753.5 268.2 755.4 271.8 756.8 275.4 C 758.1 279.0 758.7 282.9 759.1 286.7 C 759.5 290.5 759.4 294.4 759.1 298.2 C 758.7 302.0 758.3 305.9 757.0 309.5 C 755.7 313.1 753.6 316.7 751.3 320.0 C 749.1 323.3 746.4 326.5 743.4 329.3 C 740.4 332.1 736.9 334.6 733.2 336.8 C 729.6 339.0 725.6 341.0 721.5 342.4 C 717.4 343.9 713.0 344.7 708.6 345.5 C 704.3 346.3 699.7 347.3 695.4 347.4 C 691.0 347.5 686.6 347.2 682.5 346.0 C 678.4 344.8 674.5 342.5 670.9 340.3 C 667.3 338.0 663.9 335.4 661.1 332.4 C 658.3 329.5 656.1 326.0 654.3 322.6 C 652.4 319.1 651.0 315.3 650.0 311.6 C 649.0 307.9 648.3 304.1 648.2 300.3 C 648.1 296.5 648.6 292.6 649.2 288.8 C 649.8 285.0 650.4 281.1 651.8 277.5 C 653.3 273.9 655.4 270.4 657.9 267.3 C 660.4 264.1 663.4 261.1 666.7 258.6 C 670.1 256.2 674.1 254.2 678.1 252.5 C 682.1 250.8 686.3 249.2 690.6 248.4 C 694.9 247.6 699.6 247.9 704.0 247.8 C 708.5 247.7 713.0 247.2 717.4 247.7 C 721.8 248.3 726.1 249.8 730.2 251.2 C 734.4 252.6 738.8 253.9 742.3 256.2 C 745.8 258.5 748.7 261.8 751.1 265.0 Z" fill="url(#mo_pos_front)" fill-rule="evenodd" stroke="none"/>
  </g>
  <g opacity="0.60">
    <path d="M 283.7 294.4 C 284.2 298.1 284.8 301.9 284.6 305.6 C 284.5 309.4 283.4 313.1 282.8 316.9 C 282.1 320.6 281.4 324.3 280.7 328.0 C 280.0 331.8 279.3 335.5 278.6 339.2 C 277.9 342.9 276.6 346.6 276.3 350.3 C 275.9 354.1 276.5 357.9 276.6 361.7 C 276.7 365.4 277.2 369.2 277.0 373.0 C 276.8 376.7 275.9 380.5 275.2 384.2 C 274.5 387.9 274.4 391.9 272.9 395.3 C 271.4 398.8 268.8 402.0 266.2 405.0 C 263.6 408.0 260.4 410.7 257.2 413.3 C 254.0 415.8 250.7 418.5 247.0 420.4 C 243.4 422.3 239.3 423.9 235.2 424.9 C 231.1 425.9 226.5 426.3 222.2 426.6 C 217.9 426.9 213.5 427.3 209.4 426.4 C 205.3 425.6 201.4 423.4 197.5 421.6 C 193.7 419.7 189.8 417.9 186.6 415.4 C 183.3 412.9 180.7 409.8 178.2 406.6 C 175.8 403.5 173.8 400.1 172.0 396.7 C 170.2 393.3 168.9 389.6 167.5 386.1 C 166.0 382.5 164.0 379.0 163.4 375.3 C 162.8 371.7 163.5 367.9 163.8 364.1 C 164.2 360.4 164.5 356.6 165.6 352.9 C 166.6 349.3 168.4 345.8 169.9 342.3 C 171.5 338.8 173.6 335.4 174.9 331.8 C 176.3 328.3 177.2 324.6 178.0 320.9 C 178.8 317.2 178.9 313.4 179.6 309.7 C 180.3 306.0 181.0 302.2 182.0 298.6 C 183.1 294.9 184.3 291.3 185.9 287.8 C 187.4 284.3 189.0 280.7 191.3 277.5 C 193.6 274.4 196.5 271.5 199.5 268.7 C 202.5 266.0 205.7 263.3 209.3 261.2 C 212.9 259.1 216.9 257.7 221.0 256.4 C 225.0 255.0 229.4 253.7 233.6 253.2 C 237.8 252.7 242.2 252.6 246.3 253.3 C 250.5 254.0 254.7 255.8 258.5 257.5 C 262.4 259.2 266.2 261.2 269.3 263.7 C 272.5 266.2 275.2 269.4 277.3 272.6 C 279.4 275.9 280.9 279.5 281.9 283.2 C 283.0 286.8 283.3 290.6 283.7 294.4 Z" fill="url(#mo_neg_front)" fill-rule="evenodd" stroke="none"/>
  </g>
  <g opacity="0.60">
    <path d="M 601.2 336.1 C 602.8 339.6 604.5 343.1 605.3 346.7 C 606.2 350.4 606.1 354.1 606.3 357.8 C 606.4 361.6 606.3 365.3 606.0 369.1 C 605.7 372.8 605.2 376.5 604.6 380.2 C 604.0 383.9 603.2 387.6 602.2 391.3 C 601.3 394.9 600.3 398.6 598.7 402.1 C 597.2 405.6 595.3 409.0 593.0 412.2 C 590.7 415.4 588.1 418.4 585.2 421.2 C 582.3 423.9 579.1 426.6 575.6 428.8 C 572.1 431.0 568.2 432.9 564.2 434.3 C 560.2 435.7 556.0 436.5 551.7 437.1 C 547.4 437.8 543.0 438.0 538.7 438.1 C 534.4 438.2 530.0 438.3 525.8 437.6 C 521.6 437.0 517.4 435.6 513.4 434.1 C 509.4 432.7 505.4 431.0 501.9 428.9 C 498.4 426.7 495.3 424.0 492.5 421.1 C 489.7 418.3 487.3 415.1 485.2 411.8 C 483.1 408.5 481.4 405.0 480.0 401.5 C 478.7 398.0 477.9 394.3 477.0 390.6 C 476.1 386.9 475.0 383.2 474.7 379.5 C 474.4 375.9 474.5 372.2 475.2 368.6 C 476.0 365.0 477.8 361.4 479.1 357.9 C 480.5 354.3 481.8 350.7 483.5 347.3 C 485.3 343.8 487.3 340.5 489.6 337.3 C 491.9 334.2 494.6 331.2 497.4 328.4 C 500.3 325.6 503.5 323.0 506.9 320.6 C 510.2 318.2 513.9 316.1 517.5 314.1 C 521.1 312.1 524.8 309.8 528.7 308.4 C 532.7 306.9 537.1 306.5 541.3 305.6 C 545.5 304.7 549.9 303.3 554.1 303.2 C 558.3 303.1 562.5 304.0 566.6 305.1 C 570.7 306.1 575.0 307.6 578.6 309.5 C 582.3 311.4 585.6 313.8 588.5 316.5 C 591.4 319.3 593.7 322.6 595.8 325.8 C 597.9 329.1 599.6 332.6 601.2 336.1 Z" fill="url(#mo_neg_front)" fill-rule="evenodd" stroke="none"/>
  </g>
</svg>