<svg xmlns="http://www.w3.org/2000/svg" xmlns:xlink="http://www.w3.org/1999/xlink" width="800" height="606">
  <rect width="100%" height="100%" fill="#ffffff"/>
  <defs>
    <g id="a0"><radialGradient id="g0" cx=".5" cy=".5" fx=".33" fy=".33" r=".66"><stop offset="0%" stop-color="#cacaca"/><stop offset="100%" stop-color="#969696"/></radialGradient><circle cx="0" cy="0" r="31.7" fill="url(#g0)" stroke="#2d2d2d" stroke-width="5.9"/></g>
    <g id="a1"><radialGradient id="g1" cx=".5" cy=".5" fx=".33" fy=".33" r=".66"><stop offset="0%" stop-color="#cecece"/><stop offset="100%" stop-color="#9e9e9e"/></radialGradient><circle cx="0" cy="0" r="31.7" fill="url(#g1)" stroke="#444444" stroke-width="5.9"/></g>
    <g id="a2"><radialGradient id="g2" cx=".5" cy=".5" fx=".33" fy=".33" r=".66"><stop offset="0%" stop-color="#c5c5c5"/><stop offset="100%" stop-color="#8c8c8c"/></radialGradient><circle cx="0" cy="0" r="31.7" fill="url(#g2)" stroke="#0d0d0d" stroke-width="5.9"/></g>
    <g id="a3"><radialGradient id="g3" cx=".5" cy=".5" fx=".33" fy=".33" r=".66"><stop offset="0%" stop-color="#c3c3c3"/><stop offset="100%" stop-color="#888888"/></radialGradient><circle cx="0" cy="0" r="31.7" fill="url(#g3)" stroke="#000000" stroke-width="5.9"/></g>
    <g id="a4"><radialGradient id="g4" cx=".5" cy=".5" fx=".33" fy=".33" r=".66"><stop offset="0%" stop-color="#c4c4c4"/><stop offset="100%" stop-color="#8a8a8a"/></radialGradient><circle cx="0" cy="0" r="31.7" fill="url(#g4)" stroke="#060606" stroke-width="5.9"/></g>
    <g id="a5"><radialGradient id="g5" cx=".5" cy=".5" fx=".33" fy=".33" r=".66"><stop offset="0%" stop-color="#c8c8c8"/><stop offset="100%" stop-color="#939393"/></radialGradient><circle cx="0" cy="0" r="31.7" fill="url(#g5)" stroke="#242424" stroke-width="5.9"/></g>
    <g id="a6"><radialGradient id="g6" cx=".5" cy=".5" fx=".33" fy=".33" r=".66"><stop offset="0%" stop-color="#d2d2d2"/><stop offset="100%" stop-color="#a7a7a7"/></radialGradient><circle cx="0" cy="0" r="31.7" fill="url(#g6)" stroke="#606060" stroke-width="5.9"/></g>
    <g id="a7"><radialGradient id="g7" cx=".5" cy=".5" fx=".33" fy=".33" r=".66"><stop offset="0%" stop-color="#dbdbdb"/><stop offset="100%" stop-color="#b9b9b9"/></radialGradient><circle cx="0" cy="0" r="31.7" fill="url(#g7)" stroke="#969696" stroke-width="5.9"/></g>
    <g id="a8"><radialGradient id="g8" cx=".5" cy=".5" fx=".33" fy=".33" r=".66"><stop offset="0%" stop-color="#7388fa"/><stop offset="100%" stop-color="#2d46c8"/></radialGradient><circle cx="0" cy="0" r="29.8" fill="url(#g8)" stroke="#0c0c0c" stroke-width="5.9"/></g>
    <g id="a9"><radialGradient id="g9" cx=".5" cy=".5" fx=".33" fy=".33" r=".66"><stop offset="0%" stop-color="#7c90fa"/><stop offset="100%" stop-color="#3b52cb"/></radialGradient><circle cx="0" cy="0" r="29.8" fill="url(#g9)" stroke="#232323" stroke-width="5.9"/></g>
    <g id="a10"><radialGradient id="g10" cx=".5" cy=".5" fx=".33" fy=".33" r=".66"><stop offset="0%" stop-color="#6e84fa"/><stop offset="100%" stop-color="#2640c6"/></radialGradient><circle cx="0" cy="0" r="29.8" fill="url(#g10)" stroke="#010101" stroke-width="5.9"/></g>
    <g id="a11"><radialGradient id="g11" cx=".5" cy=".5" fx=".33" fy=".33" r=".66"><stop offset="0%" stop-color="#92a2fb"/><stop offset="100%" stop-color="#5c70d4"/></radialGradient><circle cx="0" cy="0" r="29.8" fill="url(#g11)" stroke="#5b5b5b" stroke-width="5.9"/></g>
    <g id="a12"><radialGradient id="g12" cx=".5" cy=".5" fx=".33" fy=".33" r=".66"><stop offset="0%" stop-color="#ff6262"/><stop offset="100%" stop-color="#cf1d1d"/></radialGradient><circle cx="0" cy="0" r="28.4" fill="url(#g12)" stroke="#1c1c1c" stroke-width="5.9"/></g>
    <g id="a13"><radialGradient id="g13" cx=".5" cy=".5" fx=".33" fy=".33" r=".66"><stop offset="0%" stop-color="#ff9d9d"/><stop offset="100%" stop-color="#e17272"/></radialGradient><circle cx="0" cy="0" r="28.4" fill="url(#g13)" stroke="#9b9b9b" stroke-width="5.9"/></g>
    <g id="a14"><radialGradient id="g14" cx=".5" cy=".5" fx=".33" fy=".33" r=".66"><stop offset="0%" stop-color="#ffffff"/><stop offset="100%" stop-color="#e0e0e0"/></radialGradient><circle cx="0" cy="0" r="16.7" fill="url(#g14)" stroke="#929292" stroke-width="5.9"/></g>
    <g id="a15"><radialGradient id="g15" cx=".5" cy=".5" fx=".33" fy=".33" r=".66"><stop offset="0%" stop-color="#ffffff"/><stop offset="100%" stop-color="#d2d2d2"/></radialGradient><circle cx="0" cy="0" r="16.7" fill="url(#g15)" stroke="#2e2e2e" stroke-width="5.9"/></g>
    <g id="a16"><radialGradient id="g16" cx=".5" cy=".5" fx=".33" fy=".33" r=".66"><stop offset="0%" stop-color="#ffffff"/><stop offset="100%" stop-color="#cccccc"/></radialGradient><circle cx="0" cy="0" r="16.7" fill="url(#g16)" stroke="#000000" stroke-width="5.9"/></g>
    <g id="a17"><radialGradient id="g17" cx=".5" cy=".5" fx=".33" fy=".33" r=".66"><stop offset="0%" stop-color="#ffffff"/><stop offset="100%" stop-color="#cccccc"/></radialGradient><circle cx="0" cy="0" r="16.7" fill="url(#g17)" stroke="#000000" stroke-width="5.9"/></g>
    <g id="a18"><radialGradient id="g18" cx=".5" cy=".5" fx=".33" fy=".33" r=".66"><stop offset="0%" stop-color="#ffffff"/><stop offset="100%" stop-color="#d4d4d4"/></radialGradient><circle cx="0" cy="0" r="16.7" fill="url(#g18)" stroke="#3c3c3c" stroke-width="5.9"/></g>
    <g id="a19"><radialGradient id="g19" cx=".5" cy=".5" fx=".33" fy=".33" r=".66"><stop offset="0%" stop-color="#ffffff"/><stop offset="100%" stop-color="#cccccc"/></radialGradient><circle cx="0" cy="0" r="16.7" fill="url(#g19)" stroke="#000000" stroke-width="5.9"/></g>
    <g id="a20"><radialGradient id="g20" cx=".5" cy=".5" fx=".33" fy=".33" r=".66"><stop offset="0%" stop-color="#ffffff"/><stop offset="100%" stop-color="#cccccc"/></radialGradient><circle cx="0" cy="0" r="16.7" fill="url(#g20)" stroke="#010101" stroke-width="5.9"/></g>
    <g id="a21"><radialGradient id="g21" cx=".5" cy=".5" fx=".33" fy=".33" r=".66"><stop offset="0%" stop-color="#ffffff"/><stop offset="100%" stop-color="#e4e4e4"/></radialGradient><circle cx="0" cy="0" r="16.7" fill="url(#g21)" stroke="#acacac" stroke-width="5.9"/></g>
    <g id="a22"><radialGradient id="g22" cx=".5" cy=".5" fx=".33" fy=".33" r=".66"><stop offset="0%" stop-color="#ffffff"/><stop offset="100%" stop-color="#eeeeee"/></radialGradient><circle cx="0" cy="0" r="16.7" fill="url(#g22)" stroke="#b2b2b2" stroke-width="5.9"/></g>
    <g id="a23"><radialGradient id="g23" cx=".5" cy=".5" fx=".33" fy=".33" r=".66"><stop offset="0%" stop-color="#ffffff"/><stop offset="100%" stop-color="#dadada"/></radialGradient><circle cx="0" cy="0" r="16.7" fill="url(#g23)" stroke="#686868" stroke-width="5.9"/></g>
  </defs>
  <defs>
    <radialGradient id="mo_pos_front" cx=".5" cy=".5" fx=".33" fy=".33" r=".66"><stop offset="0%" stop-color="#5b7ebb"/><stop offset="100%" stop-color="#163263"/></radialGradient>
    <radialGradient id="mo_neg_front" cx=".5" cy=".5" fx=".33" fy=".33" r=".66"><stop offset="0%" stop-color="#a3506a"/><stop offset="100%" stop-color="#4f0d22"/></radialGradient>
  </defs>
  <g opacity="0.60">
    <path d="M 451.3 175.3 C 452.0 179.0 453.5 182.9 453.4 186.5 C 453.4 190.2 452.3 193.8 451.1 197.3 C 449.9 200.9 448.1 204.5 446.1 207.9 C 444.2 211.3 442.0 214.6 439.3 217.6 C 436.6 220.6 433.5 223.3 430.1 225.8 C 426.8 228.2 423.0 230.2 419.3 232.3 C 415.6 234.3 411.8 236.3 407.8 238.0 C 403.9 239.6 400.0 241.4 395.7 242.1 C 391.5 242.8 386.8 242.3 382.5 242.1 C 378.1 241.9 373.6 242.1 369.5 241.0 C 365.5 239.9 361.8 237.3 358.1 235.3 C 354.3 233.3 350.5 231.4 347.0 229.0 C 343.6 226.7 340.2 224.1 337.4 221.2 C 334.6 218.3 332.3 215.0 330.2 211.7 C 328.1 208.3 326.4 204.8 324.8 201.2 C 323.3 197.7 321.8 194.1 320.8 190.4 C 319.9 186.7 319.7 182.8 319.1 179.1 C 318.4 175.3 316.5 171.6 316.7 167.9 C 316.9 164.2 318.9 160.5 320.1 156.9 C 321.4 153.2 322.3 149.4 324.1 146.0 C 326.0 142.6 328.5 139.3 331.4 136.5 C 334.3 133.8 337.9 131.3 341.7 129.4 C 345.4 127.5 349.7 126.3 353.9 125.2 C 358.1 124.0 362.5 123.0 366.8 122.5 C 371.1 122.0 375.5 121.9 379.8 122.0 C 384.2 122.1 388.7 122.5 393.1 123.0 C 397.4 123.5 401.8 124.0 406.1 124.9 C 410.3 125.9 414.6 127.2 418.5 128.9 C 422.4 130.5 426.3 132.6 429.6 135.0 C 432.9 137.4 436.0 140.3 438.5 143.3 C 441.1 146.4 443.1 149.8 444.9 153.3 C 446.7 156.7 448.1 160.4 449.1 164.1 C 450.2 167.7 450.6 171.5 451.3 175.3 Z" fill="#6687c0" fill-rule="evenodd" stroke="none"/>
  </g>
  <g opacity="0.60">
    <path d="M 468.9 366.0 C 469.6 369.7 470.4 373.5 471.2 377.2 C 472.0 381.0 473.0 384.7 473.7 388.5 C 474.4 392.2 474.9 396.0 475.2 399.8 C 475.5 403.6 475.6 407.4 475.5 411.2 C 475.4 415.0 475.4 418.8 474.8 422.6 C 474.2 426.3 473.1 430.1 471.8 433.7 C 470.5 437.3 469.1 441.0 467.1 444.4 C 465.2 447.8 462.7 451.0 460.1 454.0 C 457.4 457.0 454.0 459.5 451.1 462.4 C 448.1 465.3 445.4 468.3 442.5 471.2 C 439.6 474.0 437.0 477.2 433.7 479.7 C 430.5 482.3 426.7 484.4 422.9 486.3 C 419.2 488.3 415.1 489.8 411.1 491.5 C 407.1 493.2 403.1 494.9 399.1 496.3 C 395.0 497.8 390.7 499.0 386.6 500.3 C 382.5 501.7 378.5 503.8 374.3 504.6 C 370.1 505.5 365.6 505.4 361.2 505.5 C 356.8 505.7 352.1 506.3 347.9 505.6 C 343.7 504.9 339.8 503.0 336.0 501.1 C 332.2 499.3 328.4 497.1 325.1 494.6 C 321.7 492.2 318.4 489.5 315.9 486.4 C 313.4 483.4 311.5 479.8 309.9 476.3 C 308.3 472.7 307.0 469.0 306.3 465.3 C 305.6 461.6 305.9 457.7 305.8 453.9 C 305.7 450.1 305.7 446.3 305.7 442.5 C 305.8 438.7 306.1 434.9 306.2 431.1 C 306.2 427.3 306.7 423.4 306.2 419.6 C 305.7 415.9 304.2 412.2 303.1 408.6 C 302.0 404.9 301.3 401.1 299.7 397.5 C 298.2 393.9 296.0 390.6 294.0 387.2 C 292.0 383.8 289.7 380.6 287.8 377.1 C 286.0 373.7 284.3 370.1 282.8 366.6 C 281.3 363.0 279.8 359.3 278.9 355.7 C 278.0 352.0 277.5 348.2 277.4 344.4 C 277.2 340.6 277.5 336.8 278.0 333.0 C 278.6 329.2 279.3 325.5 280.5 321.9 C 281.8 318.3 283.8 314.8 285.5 311.3 C 287.2 307.8 289.0 304.3 290.8 300.8 C 292.7 297.4 294.3 293.8 296.6 290.5 C 298.8 287.3 301.4 284.1 304.3 281.3 C 307.1 278.4 310.3 275.6 313.7 273.2 C 317.0 270.8 320.7 268.6 324.6 266.8 C 328.4 264.9 332.6 263.4 336.7 262.1 C 340.9 260.9 345.3 260.1 349.5 259.1 C 353.8 258.1 358.0 257.0 362.3 256.0 C 366.6 255.1 370.9 254.1 375.2 253.4 C 379.6 252.7 384.0 252.3 388.4 251.7 C 392.7 251.1 397.0 250.1 401.4 249.7 C 405.8 249.3 410.3 249.2 414.7 249.3 C 419.1 249.3 423.7 248.9 427.6 250.2 C 431.6 251.4 435.2 254.2 438.3 256.7 C 441.5 259.3 444.2 262.5 446.5 265.7 C 448.9 268.9 450.8 272.4 452.5 275.9 C 454.1 279.4 455.2 283.1 456.3 286.8 C 457.4 290.5 458.3 294.2 459.0 298.0 C 459.8 301.7 460.4 305.5 461.0 309.3 C 461.6 313.1 462.0 316.9 462.5 320.6 C 463.0 324.4 463.5 328.2 463.9 332.0 C 464.3 335.8 464.6 339.6 465.1 343.4 C 465.5 347.2 466.1 351.0 466.7 354.7 C 467.4 358.5 468.2 362.2 468.9 366.0 Z" fill="#a95b74" fill-rule="evenodd" stroke="none"/>
  </g>
  <g opacity="0.60">
    <path d="M 795.1 326.9 C 795.2 330.6 793.9 334.4 793.1 338.2 C 792.3 341.9 791.8 345.8 790.6 349.5 C 789.4 353.1 787.7 356.8 785.8 360.2 C 783.9 363.6 781.6 367.0 779.0 370.1 C 776.4 373.2 773.4 376.1 770.3 378.8 C 767.1 381.4 763.6 383.9 759.9 386.0 C 756.2 388.1 752.2 389.9 748.0 391.3 C 743.9 392.6 739.5 393.4 735.2 394.2 C 730.9 395.1 726.4 396.0 722.0 396.2 C 717.7 396.4 713.4 396.2 709.1 395.6 C 704.8 394.9 700.5 393.6 696.3 392.3 C 692.1 391.0 687.8 389.7 683.9 387.9 C 680.0 386.2 676.2 384.0 672.8 381.6 C 669.4 379.2 666.3 376.3 663.5 373.4 C 660.6 370.5 658.1 367.2 655.9 363.9 C 653.7 360.6 651.7 357.1 650.2 353.5 C 648.8 349.9 648.0 346.1 647.1 342.4 C 646.3 338.6 645.4 334.8 645.2 331.0 C 645.0 327.2 645.4 323.4 646.0 319.6 C 646.5 315.8 647.3 312.0 648.5 308.3 C 649.8 304.7 651.5 301.1 653.6 297.7 C 655.7 294.4 658.4 291.3 661.1 288.3 C 663.8 285.2 666.7 282.2 669.7 279.5 C 672.8 276.7 676.0 273.9 679.6 271.8 C 683.2 269.6 687.3 267.9 691.5 266.6 C 695.6 265.3 700.1 264.7 704.5 264.1 C 708.9 263.4 713.3 262.7 717.7 262.6 C 722.2 262.5 726.6 263.2 731.0 263.7 C 735.5 264.1 740.0 264.3 744.2 265.3 C 748.5 266.3 752.6 268.0 756.5 269.8 C 760.4 271.6 764.2 273.8 767.6 276.2 C 771.0 278.6 774.2 281.4 777.1 284.3 C 779.9 287.2 782.5 290.4 784.6 293.8 C 786.8 297.1 788.6 300.7 789.9 304.3 C 791.3 307.9 792.0 311.8 792.8 315.5 C 793.7 319.3 795.1 323.1 795.1 326.9 Z" fill="#a95b74" fill-rule="evenodd" stroke="none"/>
  </g>
  <g opacity="0.60">
    <path d="M 292.6 328.6 C 293.5 332.3 293.8 336.1 294.2 339.8 C 294.6 343.6 295.0 347.4 294.8 351.1 C 294.5 354.8 293.4 358.5 292.8 362.3 C 292.1 366.0 291.6 369.7 291.1 373.5 C 290.6 377.2 290.2 381.0 289.7 384.7 C 289.3 388.5 288.5 392.2 288.4 396.0 C 288.2 399.7 288.6 403.5 288.7 407.3 C 288.8 411.0 289.0 414.8 289.1 418.6 C 289.1 422.3 288.9 426.1 288.9 429.9 C 288.8 433.6 289.0 437.4 288.6 441.2 C 288.2 444.9 287.4 448.6 286.5 452.3 C 285.7 456.0 285.0 459.8 283.7 463.4 C 282.4 466.9 280.8 470.5 278.8 473.8 C 276.8 477.2 274.5 480.4 271.8 483.3 C 269.1 486.3 266.1 489.1 262.9 491.6 C 259.7 494.1 256.1 496.4 252.4 498.4 C 248.7 500.4 244.8 502.2 240.8 503.6 C 236.8 505.1 232.4 505.9 228.3 507.0 C 224.1 508.1 219.9 509.8 215.7 510.2 C 211.4 510.7 207.1 510.0 202.8 509.6 C 198.5 509.2 193.9 509.0 189.8 507.9 C 185.7 506.8 181.9 504.9 178.2 502.9 C 174.6 500.9 171.2 498.4 167.9 495.9 C 164.5 493.5 161.3 490.9 158.3 488.2 C 155.2 485.5 152.2 482.7 149.5 479.8 C 146.8 476.9 143.9 473.9 141.8 470.6 C 139.8 467.4 138.3 463.8 137.2 460.2 C 136.1 456.6 135.5 452.7 135.2 449.0 C 135.0 445.3 135.1 441.5 135.7 437.8 C 136.3 434.1 137.9 430.5 138.8 426.8 C 139.8 423.2 140.7 419.5 141.7 415.8 C 142.6 412.1 143.6 408.4 144.6 404.8 C 145.6 401.1 146.7 397.5 147.5 393.8 C 148.4 390.1 148.8 386.3 149.5 382.6 C 150.2 378.9 150.9 375.2 151.8 371.5 C 152.6 367.8 153.5 364.1 154.5 360.4 C 155.5 356.7 156.3 353.0 157.6 349.4 C 158.8 345.8 160.5 342.3 161.9 338.8 C 163.3 335.2 164.4 331.5 166.0 328.0 C 167.5 324.5 169.1 320.9 171.1 317.6 C 173.1 314.3 175.3 311.0 177.9 308.0 C 180.5 305.0 183.5 302.1 186.8 299.6 C 190.1 297.2 193.9 295.2 197.7 293.4 C 201.5 291.6 205.5 289.8 209.7 288.8 C 213.8 287.8 218.2 287.8 222.6 287.6 C 226.9 287.4 231.4 287.3 235.7 287.7 C 240.0 288.0 244.4 288.7 248.5 289.9 C 252.6 291.2 256.3 293.3 260.1 295.2 C 263.9 297.1 267.6 299.1 271.1 301.4 C 274.5 303.7 278.0 306.1 280.9 308.8 C 283.8 311.6 286.6 314.6 288.6 317.9 C 290.5 321.2 291.6 325.0 292.6 328.6 Z" fill="#6687c0" fill-rule="evenodd" stroke="none"/>
  </g>
  <g opacity="0.60">
    <path d="M 636.4 408.9 C 637.8 412.4 639.6 415.9 640.2 419.6 C 640.9 423.2 640.2 427.1 640.1 430.8 C 640.0 434.6 640.4 438.4 639.6 442.1 C 638.8 445.7 636.7 449.1 635.3 452.7 C 633.9 456.2 632.8 459.9 631.4 463.4 C 629.9 467.0 628.4 470.5 626.5 473.9 C 624.6 477.2 622.5 480.5 620.2 483.7 C 617.9 486.9 615.3 489.9 612.6 492.9 C 609.9 495.8 607.2 498.8 604.2 501.5 C 601.2 504.2 597.9 506.7 594.6 509.1 C 591.3 511.6 588.0 514.1 584.4 516.2 C 580.8 518.3 576.9 520.0 573.0 521.7 C 569.1 523.4 565.1 525.4 561.0 526.2 C 556.9 527.1 552.6 526.9 548.3 526.7 C 544.0 526.6 539.6 526.1 535.3 525.5 C 531.0 524.9 526.7 524.1 522.6 523.1 C 518.4 522.0 514.3 520.6 510.3 519.1 C 506.4 517.6 502.4 516.0 498.6 514.1 C 494.9 512.2 491.3 510.0 487.8 507.7 C 484.4 505.5 481.0 503.1 477.8 500.5 C 474.7 497.9 471.6 495.2 469.1 492.1 C 466.5 489.1 464.4 485.8 462.5 482.4 C 460.7 479.1 459.1 475.5 457.8 471.9 C 456.6 468.4 455.8 464.7 455.1 461.0 C 454.5 457.3 454.2 453.5 453.9 449.7 C 453.7 446.0 453.3 442.3 453.5 438.5 C 453.7 434.8 454.5 431.1 455.2 427.4 C 455.9 423.7 456.3 419.9 457.6 416.3 C 458.9 412.8 461.0 409.4 463.2 406.2 C 465.3 403.0 468.1 400.0 470.6 396.9 C 473.0 393.8 475.4 390.7 477.9 387.6 C 480.4 384.6 482.6 381.2 485.6 378.6 C 488.6 375.9 492.4 373.8 495.8 371.6 C 499.3 369.3 502.9 367.1 506.4 365.0 C 510.0 362.8 513.4 360.4 517.2 358.6 C 521.0 356.9 525.2 355.4 529.4 354.5 C 533.5 353.6 538.0 353.6 542.3 353.1 C 546.7 352.7 551.0 352.3 555.3 352.0 C 559.7 351.8 564.1 351.9 568.4 351.9 C 572.8 351.9 577.2 351.5 581.5 352.0 C 585.8 352.5 590.1 353.4 594.1 354.8 C 598.1 356.1 602.1 358.0 605.5 360.2 C 608.9 362.5 611.7 365.4 614.4 368.3 C 617.1 371.2 619.5 374.4 621.7 377.7 C 623.9 380.9 625.9 384.3 627.6 387.7 C 629.4 391.1 630.8 394.7 632.3 398.2 C 633.8 401.7 635.1 405.3 636.4 408.9 Z" fill="#6687c0" fill-rule="evenodd" stroke="none"/>
  </g>
  <use x="601.6" y="125.3" xlink:href="#a22"/>
  <line x1="608.2" y1="129.4" x2="631.8" y2="143.8" stroke="#6d6d6d" stroke-width="14.7" stroke-linecap="round"/>
  <use x="728.3" y="195.3" xlink:href="#a21"/>
  <line x1="715.4" y1="188.6" x2="668.9" y2="164.4" stroke="#5a5a5a" stroke-width="14.7" stroke-linecap="round"/>
  <use x="398.1" y="142.9" xlink:href="#a13"/>
  <line x1="415.7" y1="156.0" x2="436.7" y2="193.0" stroke="#454545" stroke-width="10.3" stroke-linecap="round"/>
  <line x1="400.4" y1="164.8" x2="421.3" y2="201.7" stroke="#454545" stroke-width="10.3" stroke-linecap="round"/>
  <use x="644.3" y="151.5" xlink:href="#a7"/>
  <line x1="650.0" y1="128.0" x2="660.7" y2="83.7" stroke="#474747" stroke-width="14.7" stroke-linecap="round"/>
  <line x1="627.4" y1="169.2" x2="582.4" y2="216.4" stroke="#434343" stroke-width="14.7" stroke-linecap="round"/>
  <use x="174.7" y="233.3" xlink:href="#a14"/>
  <line x1="172.0" y1="234.5" x2="162.6" y2="238.9" stroke="#3a3a3a" stroke-width="14.7" stroke-linecap="round"/>
  <use x="663.7" y="71.4" xlink:href="#a23"/>
  <use x="440.1" y="216.9" xlink:href="#a6"/>
  <line x1="468.4" y1="220.5" x2="539.9" y2="229.7" stroke="#343434" stroke-width="14.7" stroke-linecap="round"/>
  <line x1="425.5" y1="234.3" x2="388.7" y2="278.2" stroke="#262626" stroke-width="14.7" stroke-linecap="round"/>
  <use x="566.5" y="233.1" xlink:href="#a11"/>
  <line x1="578.0" y1="248.8" x2="608.9" y2="291.1" stroke="#222222" stroke-width="14.7" stroke-linecap="round"/>
  <use x="157.6" y="241.2" xlink:href="#a1"/>
  <line x1="132.4" y1="253.9" x2="85.0" y2="277.8" stroke="#242424" stroke-width="14.7" stroke-linecap="round"/>
  <line x1="156.2" y1="214.8" x2="153.6" y2="165.1" stroke="#202020" stroke-width="14.7" stroke-linecap="round"/>
  <line x1="178.3" y1="256.2" x2="231.9" y2="295.1" stroke="#1c1c1c" stroke-width="14.7" stroke-linecap="round"/>
  <use x="71.7" y="284.5" xlink:href="#a18"/>
  <use x="152.8" y="151.2" xlink:href="#a15"/>
  <use x="374.1" y="295.7" xlink:href="#a0"/>
  <line x1="347.0" y1="307.6" x2="278.7" y2="315.1" stroke="#161616" stroke-width="10.3" stroke-linecap="round" stroke-dasharray="10.3,20.6"/>
  <line x1="345.1" y1="290.0" x2="276.7" y2="297.6" stroke="#161616" stroke-width="10.3" stroke-linecap="round"/>
  <line x1="393.9" y1="309.8" x2="423.0" y2="354.2" stroke="#0f0f0f" stroke-width="10.3" stroke-linecap="round"/>
  <line x1="379.1" y1="319.5" x2="408.1" y2="363.9" stroke="#0f0f0f" stroke-width="10.3" stroke-linecap="round" stroke-dasharray="10.3,20.6"/>
  <use x="621.1" y="307.7" xlink:href="#a5"/>
  <line x1="648.7" y1="297.3" x2="702.0" y2="294.4" stroke="#121212" stroke-width="10.3" stroke-linecap="round"/>
  <line x1="649.7" y1="315.0" x2="703.0" y2="312.0" stroke="#121212" stroke-width="10.3" stroke-linecap="round"/>
  <line x1="605.6" y1="327.4" x2="566.3" y2="377.1" stroke="#0c0c0c" stroke-width="14.7" stroke-linecap="round"/>
  <use x="251.3" y="309.3" xlink:href="#a9"/>
  <line x1="256.4" y1="330.1" x2="247.3" y2="378.2" stroke="#0a0a0a" stroke-width="10.3" stroke-linecap="round" stroke-dasharray="10.3,20.6"/>
  <line x1="239.0" y1="326.8" x2="229.9" y2="374.9" stroke="#0a0a0a" stroke-width="10.3" stroke-linecap="round"/>
  <use x="727.7" y="301.8" xlink:href="#a12"/>
  <use x="428.0" y="378.0" xlink:href="#a2"/>
  <line x1="456.2" y1="382.0" x2="525.2" y2="391.8" stroke="#070707" stroke-width="14.7" stroke-linecap="round"/>
  <line x1="413.1" y1="399.4" x2="365.5" y2="433.2" stroke="#030303" stroke-width="10.3" stroke-linecap="round"/>
  <line x1="402.8" y1="385.0" x2="355.3" y2="418.8" stroke="#030303" stroke-width="10.3" stroke-linecap="round" stroke-dasharray="10.3,20.6"/>
  <use x="551.7" y="395.6" xlink:href="#a8"/>
  <line x1="562.7" y1="409.0" x2="593.4" y2="446.6" stroke="#010101" stroke-width="14.7" stroke-linecap="round"/>
  <use x="234.7" y="396.9" xlink:href="#a4"/>
  <line x1="209.7" y1="406.2" x2="163.0" y2="423.7" stroke="#020202" stroke-width="14.7" stroke-linecap="round"/>
  <line x1="263.3" y1="398.7" x2="321.0" y2="421.7" stroke="#010101" stroke-width="10.3" stroke-linecap="round" stroke-dasharray="10.3,20.6"/>
  <line x1="256.8" y1="415.2" x2="314.4" y2="438.1" stroke="#010101" stroke-width="10.3" stroke-linecap="round"/>
  <use x="149.8" y="428.6" xlink:href="#a20"/>
  <use x="341.5" y="439.4" xlink:href="#a10"/>
  <use x="691.0" y="497.0" xlink:href="#a16"/>
  <line x1="677.7" y1="491.4" x2="630.2" y2="471.4" stroke="#000000" stroke-width="14.7" stroke-linecap="round"/>
  <use x="605.0" y="460.8" xlink:href="#a3"/>
  <line x1="588.0" y1="482.5" x2="556.2" y2="523.2" stroke="#000000" stroke-width="14.7" stroke-linecap="round"/>
  <line x1="609.1" y1="444.2" x2="616.8" y2="412.8" stroke="#000000" stroke-width="14.7" stroke-linecap="round"/>
  <use x="547.3" y="534.6" xlink:href="#a19"/>
  <use x="618.9" y="404.0" xlink:href="#a17"/>
  <g opacity="0.60">
    <path d="M 451.3 109.6 C 453.1 113.0 455.9 116.3 457.1 119.8 C 458.2 123.4 458.1 127.2 458.2 131.0 C 458.4 134.7 458.6 138.6 457.9 142.3 C 457.2 146.0 455.8 149.6 454.1 153.1 C 452.4 156.6 450.1 159.8 447.8 163.1 C 445.6 166.3 443.4 169.7 440.6 172.6 C 437.8 175.5 434.5 178.1 430.9 180.2 C 427.3 182.4 423.2 183.9 419.2 185.3 C 415.1 186.7 410.7 187.7 406.5 188.5 C 402.2 189.2 397.8 189.7 393.4 189.8 C 389.0 190.0 384.6 189.7 380.2 189.4 C 375.8 189.1 371.4 189.0 367.1 188.2 C 362.8 187.4 358.5 186.3 354.4 184.8 C 350.4 183.4 346.4 181.6 342.9 179.3 C 339.4 177.1 336.2 174.4 333.6 171.4 C 331.0 168.4 329.0 164.9 327.3 161.4 C 325.6 158.0 324.3 154.3 323.5 150.6 C 322.7 146.9 322.5 143.1 322.3 139.3 C 322.2 135.5 322.2 131.7 322.5 127.9 C 322.7 124.1 323.1 120.3 323.8 116.6 C 324.5 112.9 325.5 109.1 326.6 105.5 C 327.8 101.8 329.1 98.2 330.8 94.7 C 332.6 91.3 334.6 87.8 337.1 84.7 C 339.7 81.7 342.8 78.8 346.2 76.4 C 349.5 74.0 353.4 72.1 357.3 70.4 C 361.2 68.6 365.3 66.9 369.6 66.1 C 373.8 65.2 378.3 65.5 382.7 65.4 C 387.1 65.2 391.6 64.7 395.9 65.3 C 400.2 65.9 404.3 67.3 408.4 68.7 C 412.4 70.2 416.4 71.9 420.1 73.9 C 423.8 75.9 427.5 78.2 430.6 80.8 C 433.8 83.4 436.6 86.3 439.2 89.4 C 441.7 92.5 443.8 95.9 445.8 99.2 C 447.8 102.6 449.4 106.2 451.3 109.6 Z" fill="url(#mo_neg_front)" fill-rule="evenodd" stroke="none"/>
  </g>
  <g opacity="0.60">
    <path d="M 777.5 270.2 C 778.7 273.9 780.5 277.6 780.8 281.3 C 781.1 285.0 779.9 288.9 779.4 292.6 C 778.8 296.4 778.8 300.4 777.5 304.0 C 776.3 307.6 774.1 311.0 772.1 314.4 C 770.1 317.7 767.8 321.0 765.5 324.3 C 763.3 327.6 761.2 331.1 758.5 334.0 C 755.8 337.0 752.5 339.7 749.1 342.1 C 745.7 344.5 741.7 346.3 738.0 348.4 C 734.3 350.4 730.6 352.6 726.8 354.6 C 723.0 356.5 719.2 358.7 715.1 359.9 C 710.9 361.0 706.3 361.0 701.9 361.5 C 697.5 361.9 692.9 363.2 688.7 362.6 C 684.5 362.0 680.5 359.6 676.7 357.7 C 672.9 355.8 669.3 353.5 665.8 351.2 C 662.2 349.0 658.5 346.8 655.3 344.2 C 652.2 341.5 649.1 338.6 646.9 335.4 C 644.6 332.2 643.1 328.5 641.7 324.9 C 640.4 321.3 639.6 317.5 638.8 313.7 C 638.1 310.0 637.4 306.2 637.2 302.4 C 637.0 298.6 637.4 294.7 637.6 290.9 C 637.8 287.1 637.8 283.3 638.4 279.5 C 639.0 275.8 640.0 272.0 641.1 268.3 C 642.1 264.6 643.2 260.9 644.9 257.4 C 646.5 253.9 648.6 250.4 651.1 247.3 C 653.5 244.2 656.5 241.2 659.8 238.7 C 663.1 236.3 666.9 234.2 670.8 232.4 C 674.7 230.7 678.9 229.1 683.1 228.1 C 687.3 227.0 691.7 226.5 696.1 226.0 C 700.4 225.6 705.0 225.4 709.4 225.5 C 713.8 225.6 718.2 225.9 722.5 226.5 C 726.8 227.1 731.3 228.1 735.4 229.3 C 739.6 230.5 743.7 231.8 747.5 233.8 C 751.2 235.7 754.6 238.3 757.8 241.0 C 760.9 243.6 763.8 246.6 766.4 249.6 C 769.0 252.7 771.7 255.9 773.5 259.3 C 775.4 262.7 776.3 266.5 777.5 270.2 Z" fill="url(#mo_pos_front)" fill-rule="evenodd" stroke="none"/>
  </g>
  <g opacity="0.60">
    <path d="M 468.9 272.8 C 469.3 276.5 469.6 280.3 469.9 284.1 C 470.2 287.9 470.4 291.7 470.7 295.5 C 471.0 299.3 471.3 303.1 471.7 306.9 C 472.1 310.7 472.6 314.4 473.0 318.2 C 473.4 322.0 473.8 325.8 474.1 329.6 C 474.5 333.4 474.9 337.2 475.2 341.0 C 475.4 344.8 475.8 348.6 475.8 352.3 C 475.8 356.1 475.4 360.0 475.1 363.7 C 474.7 367.5 474.6 371.4 473.7 375.0 C 472.7 378.7 471.1 382.4 469.2 385.8 C 467.4 389.2 465.0 392.5 462.4 395.5 C 459.7 398.5 456.6 401.3 453.4 403.8 C 450.1 406.4 446.5 408.7 442.7 410.7 C 439.0 412.6 434.9 414.1 430.9 415.7 C 426.8 417.3 422.6 418.4 418.6 420.0 C 414.6 421.5 410.6 423.2 406.6 424.9 C 402.7 426.6 398.7 428.3 394.9 430.1 C 391.0 431.9 387.0 433.7 383.4 435.8 C 379.7 437.9 376.4 440.5 373.0 442.8 C 369.5 445.2 366.2 447.7 362.7 450.1 C 359.2 452.4 355.8 455.1 352.0 456.8 C 348.3 458.6 344.4 460.2 340.2 460.6 C 336.1 460.9 331.2 459.9 327.1 458.8 C 323.1 457.7 318.8 456.3 315.9 453.9 C 313.0 451.4 310.8 447.6 309.7 444.1 C 308.5 440.5 309.0 436.5 309.0 432.7 C 309.0 429.0 309.0 425.1 309.9 421.4 C 310.7 417.7 312.4 414.2 314.0 410.6 C 315.5 407.0 317.5 403.6 319.0 400.0 C 320.5 396.5 322.0 392.9 323.1 389.2 C 324.2 385.5 325.3 381.8 325.5 378.0 C 325.8 374.3 325.1 370.5 324.4 366.8 C 323.8 363.0 323.1 359.1 321.8 355.6 C 320.4 352.1 318.4 348.8 316.2 345.5 C 314.0 342.3 310.8 339.5 308.4 336.3 C 306.1 333.1 304.0 329.7 302.2 326.3 C 300.4 322.8 299.1 319.1 297.8 315.5 C 296.5 311.9 295.4 308.2 294.5 304.5 C 293.6 300.8 293.3 296.9 292.5 293.2 C 291.7 289.5 290.4 285.8 289.8 282.0 C 289.2 278.3 289.0 274.5 288.6 270.7 C 288.2 266.9 287.3 263.1 287.6 259.3 C 287.9 255.6 289.2 251.8 290.3 248.2 C 291.4 244.5 292.8 240.9 294.1 237.2 C 295.4 233.6 296.6 230.0 298.1 226.4 C 299.6 222.8 301.2 219.3 303.1 215.8 C 304.9 212.4 306.8 208.9 309.1 205.7 C 311.4 202.5 314.0 199.2 317.1 196.6 C 320.2 194.0 324.0 191.8 327.8 189.9 C 331.5 188.0 335.6 186.3 339.8 185.1 C 343.9 183.9 348.3 183.2 352.6 182.5 C 356.9 181.8 361.4 181.4 365.7 181.1 C 370.1 180.8 374.6 180.7 379.0 180.7 C 383.4 180.7 387.8 180.7 392.2 181.0 C 396.6 181.4 401.0 181.9 405.2 182.8 C 409.5 183.8 413.7 185.1 417.7 186.6 C 421.7 188.1 425.7 189.8 429.4 191.9 C 433.1 194.0 436.5 196.5 439.7 199.1 C 442.9 201.7 446.0 204.5 448.6 207.5 C 451.2 210.5 453.3 213.9 455.3 217.3 C 457.2 220.7 458.9 224.3 460.3 227.9 C 461.7 231.4 462.8 235.1 463.8 238.9 C 464.7 242.6 465.4 246.3 466.1 250.1 C 466.8 253.8 467.4 257.6 467.8 261.4 C 468.3 265.2 468.6 269.0 468.9 272.8 Z" fill="url(#mo_pos_front)" fill-rule="evenodd" stroke="none"/>
  </g>
  <g opacity="0.60">
    <path d="M 627.6 344.3 C 627.9 348.1 628.1 351.9 628.2 355.7 C 628.3 359.5 628.3 363.3 628.2 367.0 C 628.1 370.8 627.9 374.6 627.4 378.4 C 627.0 382.1 626.4 385.9 625.6 389.6 C 624.7 393.3 623.8 397.0 622.4 400.6 C 620.9 404.1 619.0 407.6 617.0 410.9 C 614.9 414.3 612.5 417.5 609.8 420.5 C 607.1 423.4 604.2 426.4 600.9 428.8 C 597.5 431.2 593.6 433.0 589.7 434.8 C 585.8 436.6 581.7 438.1 577.7 439.6 C 573.7 441.2 569.8 443.0 565.7 444.3 C 561.6 445.5 557.3 446.5 553.0 447.4 C 548.7 448.2 544.3 448.8 540.0 449.2 C 535.7 449.6 531.4 450.3 527.2 449.7 C 523.0 449.2 518.8 447.4 514.8 446.0 C 510.7 444.5 506.7 442.8 502.9 441.0 C 499.0 439.3 494.9 437.6 491.5 435.3 C 488.1 433.0 485.2 430.1 482.4 427.2 C 479.7 424.2 477.5 420.9 475.1 417.7 C 472.6 414.6 469.9 411.6 467.7 408.3 C 465.4 405.1 463.0 401.9 461.5 398.3 C 460.1 394.8 459.7 391.0 459.0 387.3 C 458.3 383.5 457.5 379.7 457.6 376.0 C 457.6 372.2 458.4 368.5 459.3 364.8 C 460.1 361.1 461.2 357.4 462.7 353.8 C 464.2 350.3 466.0 346.8 468.0 343.5 C 470.0 340.1 472.4 336.9 474.6 333.6 C 476.9 330.4 479.3 327.2 481.5 324.0 C 483.7 320.7 485.5 317.2 488.0 314.1 C 490.5 311.0 493.4 308.1 496.4 305.3 C 499.3 302.5 502.5 299.9 505.8 297.4 C 509.2 294.9 512.6 292.6 516.2 290.4 C 519.8 288.2 523.5 286.0 527.4 284.3 C 531.2 282.6 535.4 281.3 539.5 280.0 C 543.7 278.7 547.8 277.3 552.1 276.5 C 556.3 275.6 560.7 275.1 565.0 274.8 C 569.4 274.4 573.9 274.1 578.2 274.3 C 582.6 274.6 587.0 275.1 591.0 276.4 C 595.1 277.6 599.1 279.6 602.6 281.9 C 606.0 284.1 609.3 286.9 611.9 289.9 C 614.5 292.8 616.7 296.3 618.4 299.7 C 620.1 303.2 621.1 306.9 622.1 310.6 C 623.1 314.3 623.9 318.0 624.6 321.8 C 625.3 325.5 625.8 329.3 626.3 333.0 C 626.8 336.8 627.3 340.5 627.6 344.3 Z" fill="url(#mo_neg_front)" fill-rule="evenodd" stroke="none"/>
  </g>
  <g opacity="0.60">
    <path d="M 292.6 362.4 C 293.1 366.2 294.5 369.9 294.5 373.7 C 294.5 377.4 293.2 381.2 292.6 384.9 C 291.9 388.7 291.6 392.5 290.6 396.2 C 289.6 399.8 288.2 403.5 286.5 406.9 C 284.8 410.4 282.8 413.9 280.5 417.0 C 278.1 420.2 275.4 423.3 272.2 425.8 C 269.0 428.3 265.1 430.3 261.2 432.0 C 257.3 433.8 253.2 435.2 249.0 436.3 C 244.8 437.4 240.4 438.0 236.1 438.5 C 231.7 438.9 227.3 438.9 222.9 438.9 C 218.5 438.9 214.1 439.1 209.7 438.7 C 205.3 438.3 201.0 437.5 196.7 436.7 C 192.4 435.9 188.0 435.2 183.9 433.9 C 179.8 432.5 175.8 430.7 172.2 428.7 C 168.5 426.6 165.1 424.2 162.0 421.5 C 158.9 418.9 156.2 415.8 153.7 412.7 C 151.1 409.7 148.8 406.4 146.8 403.0 C 144.8 399.7 143.4 396.1 141.8 392.5 C 140.2 389.0 138.6 385.4 137.4 381.8 C 136.3 378.2 135.2 374.5 134.8 370.7 C 134.5 367.0 135.1 363.1 135.5 359.4 C 135.8 355.6 136.1 351.8 137.2 348.2 C 138.2 344.5 140.2 341.0 141.6 337.5 C 143.1 333.9 144.8 330.4 146.0 326.7 C 147.2 323.1 147.9 319.3 148.8 315.6 C 149.8 311.9 150.7 308.2 151.7 304.5 C 152.8 300.9 154.0 297.2 155.3 293.6 C 156.6 290.0 157.7 286.3 159.4 282.8 C 161.1 279.3 163.2 275.9 165.6 272.8 C 167.9 269.6 170.7 266.6 173.6 263.7 C 176.5 260.9 179.6 258.2 182.9 255.7 C 186.2 253.3 189.8 251.0 193.5 248.9 C 197.2 246.9 201.1 245.1 205.1 243.5 C 209.1 242.0 213.3 240.8 217.5 239.7 C 221.7 238.7 226.1 237.8 230.4 237.2 C 234.7 236.6 238.9 235.8 243.2 236.2 C 247.4 236.6 251.6 238.3 255.7 239.7 C 259.8 241.1 264.0 242.4 267.6 244.5 C 271.2 246.6 274.6 249.2 277.4 252.1 C 280.2 254.9 282.5 258.3 284.5 261.7 C 286.5 265.0 288.1 268.6 289.4 272.2 C 290.7 275.8 291.7 279.5 292.4 283.2 C 293.2 286.9 293.6 290.7 294.0 294.5 C 294.4 298.3 295.0 302.1 294.9 305.8 C 294.8 309.6 293.8 313.4 293.3 317.1 C 292.8 320.9 292.2 324.6 291.9 328.4 C 291.6 332.2 291.6 336.0 291.5 339.8 C 291.4 343.6 291.0 347.4 291.2 351.1 C 291.3 354.9 292.0 358.7 292.6 362.4 Z" fill="url(#mo_neg_front)" fill-rule="evenodd" stroke="none"/>
  </g>
  <g opacity="0.60">
    <path d="M 654.1 408.5 C 654.9 412.2 656.2 416.0 656.0 419.7 C 655.8 423.5 654.1 427.2 653.1 430.9 C 652.1 434.6 651.5 438.4 650.0 442.0 C 648.6 445.6 646.5 449.0 644.4 452.4 C 642.3 455.7 640.3 459.3 637.4 462.1 C 634.5 464.9 630.7 467.1 627.1 469.2 C 623.5 471.3 619.6 473.7 615.6 474.9 C 611.6 476.0 607.3 476.2 603.1 476.1 C 598.8 476.0 594.2 474.9 590.0 474.0 C 585.7 473.0 581.4 472.0 577.6 470.3 C 573.7 468.6 569.9 466.3 566.7 463.7 C 563.5 461.2 560.8 458.0 558.3 454.9 C 555.9 451.7 553.5 448.3 552.0 444.8 C 550.5 441.3 549.9 437.5 549.3 433.8 C 548.7 430.0 548.1 426.1 548.2 422.4 C 548.2 418.6 548.9 414.8 549.8 411.1 C 550.6 407.4 551.8 403.6 553.4 400.1 C 554.9 396.6 556.8 393.1 559.2 390.0 C 561.6 386.8 564.6 383.9 567.7 381.2 C 570.8 378.4 573.9 375.6 577.5 373.5 C 581.2 371.4 585.2 369.9 589.3 368.7 C 593.5 367.5 598.0 366.5 602.3 366.2 C 606.6 365.8 610.9 365.6 615.1 366.5 C 619.2 367.3 623.4 369.3 627.2 371.2 C 631.0 373.1 634.9 375.1 638.0 377.7 C 641.1 380.3 643.7 383.6 645.9 386.9 C 648.1 390.2 649.8 393.7 651.2 397.3 C 652.5 400.9 653.3 404.8 654.1 408.5 Z" fill="url(#mo_pos_front)" fill-rule="evenodd" stroke="none"/>
  </g>
</svg>