<svg xmlns="http://www.w3.org/2000/svg" xmlns:xlink="http://www.w3.org/1999/xlink" width="800" height="606">
  <rect width="100%" height="100%" fill="#ffffff"/>
  <defs>
    <g id="a0"><radialGradient id="g0" cx=".5" cy=".5" fx=".33" fy=".33" r=".66"><stop offset="0%" stop-color="#cacaca"/><stop offset="100%" stop-color="#969696"/></radialGradient><circle cx="0" cy="0" r="31.7" fill="url(#g0)" stroke="#2d2d2d" stroke-width="5.9"/></g>
    <g id="a1"><radialGradient id="g1" cx=".5" cy=".5" fx=".33" fy=".33" r=".66"><stop offset="0%" stop-color="#cecece"/><stop offset="100%" stop-color="#9e9e9e"/></radialGradient><circle cx="0" cy="0" r="31.7" fill="url(#g1)" stroke="#444444" stroke-width="5.9"/></g>
    <g id="a2"><radialGradient id="g2" cx=".5" cy=".5" fx=".33" fy=".33" r=".66"><stop offset="0%" stop-color="#c5c5c5"/><stop offset="100%" stop-color="#8c8c8c"/></radialGradient><circle cx="0" cy="0" r="31.7" fill="url(#g2)" stroke="#0d0d0d" stroke-width="5.9"/></g>
    <g id="a3"><radialGradient id="g3" cx=".5" cy=".5" fx=".33" fy=".33" r=".66"><stop offset="0%" stop-color="#c3c3c3"/><stop offset="100%" stop-color="#888888"/></radialGradient><circle cx="0" cy="0" r="31.7" fill="url(#g3)" stroke="#000000" stroke-width="5.9"/></g>
    <g id="a4"><radialGradient id="g4" cx=".5" cy=".5" fx=".33" fy=".33" r=".66"><stop offset="0%" stop-color="#c4c4c4"/><stop offset="100%" stop-color="#8a8a8a"/></radialGradient><circle cx="0" cy="0" r="31.7" fill="url(#g4)" stroke="#060606" stroke-width="5.9"/></g>
    <g id="a5"><radialGradient id="g5" cx=".5" cy=".5" fx=".33" fy=".33" r=".66"><stop offset="0%" stop-color="#c8c8c8"/><stop offset="100%" stop-color="#939393"/></radialGradient><circle cx="0" cy="0" r="31.7" fill="url(#g5)" stroke="#242424" stroke-width="5.9"/></g>
    <g id="a6"><radialGradient id="g6" cx=".5" cy=".5" fx=".33" fy=".33" r=".66"><stop offset="0%" stop-color="#d2d2d2"/><stop offset="100%" stop-color="#a7a7a7"/></radialGradient><circle cx="0" cy="0" r="31.7" fill="url(#g6)" stroke="#606060" stroke-width="5.9"/></g>
    <g id="a7"><radialGradient id="g7" cx=".5" cy=".5" fx=".33" fy=".33" r=".66"><stop offset="0%" stop-color="#dbdbdb"/><stop offset="100%" stop-color="#b9b9b9"/></radialGradient><circle cx="0" cy="0" r="31.7" fill="url(#g7)" stroke="#969696" stroke-width="5.9"/></g>
    <g id="a8"><radialGradient id="g8" cx=".5" cy=".5" fx=".33" fy=".33" r=".66"><stop offset="0%" stop-color="#7388fa"/><stop offset="100%" stop-color="#2d46c8"/></radialGradient><circle cx="0" cy="0" r="29.8" fill="url(#g8)" stroke="#0c0c0c" stroke-width="5.9"/></g>
    <g id="a9"><radialGradient id="g9" cx=".5" cy=".5" fx=".33" fy=".33" r=".66"><stop offset="0%" stop-color="#7c90fa"/><stop offset="100%" stop-color="#3b52cb"/></radialGradient><circle cx="0" cy="0" r="29.8" fill="url(#g9)" stroke="#232323" stroke-width="5.9"/></g>
    <g id="a10"><radialGradient id="g10" cx=".5" cy=".5" fx=".33" fy=".33" r=".66"><stop offset="0%" stop-color="#6e84fa"/><stop offset="100%" stop-color="#2640c6"/></radialGradient><circle cx="0" cy="0" r="29.8" fill="url(#g10)" stroke="#010101" stroke-width="5.9"/></g>
    <g id="a11"><radialGradient id="g11" cx=".5" cy=".5" fx=".33" fy=".33" r=".66"><stop offset="0%" stop-color="#92a2fb"/><stop offset="100%" stop-color="#5c70d4"/></radialGradient><circle cx="0" cy="0" r="29.8" fill="url(#g11)" stroke="#5b5b5b" stroke-width="5.9"/></g>
    <g id="a12"><radialGradient id="g12" cx=".5" cy=".5" fx=".33" fy=".33" r=".66"><stop offset="0%" stop-color="#ff6262"/><stop offset="100%" stop-color="#cf1d1d"/></radialGradient><circle cx="0" cy="0" r="28.4" fill="url(#g12)" stroke="#1c1c1c" stroke-width="5.9"/></g>
    <g id="a13"><radialGradient id="g13" cx=".5" cy=".5" fx=".33" fy=".33" r=".66"><stop offset="0%" stop-color="#ff9d9d"/><stop offset="100%" stop-color="#e17272"/></radialGradient><circle cx="0" cy="0" r="28.4" fill="url(#g13)" stroke="#9b9b9b" stroke-width="5.9"/></g>
  </defs>
  <defs>
    <radialGradient id="mo_pos_front" cx=".5" cy=".5" fx=".33" fy=".33" r=".66"><stop offset="0%" stop-color="#5b7ebb"/><stop offset="100%" stop-color="#163263"/></radialGradient>
    <radialGradient id="mo_neg_front" cx=".5" cy=".5" fx=".33" fy=".33" r=".66"><stop offset="0%" stop-color="#a3506a"/><stop offset="100%" stop-color="#4f0d22"/></radialGradient>
  </defs>
  <g opacity="0.60">
    <path d="M 442.5 158.7 C 443.7 162.3 444.9 166.0 445.1 169.7 C 445.3 173.4 444.3 177.2 443.7 180.9 C 443.2 184.6 443.2 188.5 441.7 192.0 C 440.3 195.5 437.8 198.7 435.2 201.8 C 432.7 204.8 429.5 207.4 426.5 210.1 C 423.4 212.8 420.4 215.5 417.0 217.9 C 413.7 220.3 410.3 222.8 406.5 224.5 C 402.7 226.2 398.4 227.3 394.2 228.1 C 390.0 228.8 385.5 228.9 381.1 229.0 C 376.8 229.1 372.4 229.3 368.2 228.6 C 364.1 227.8 360.0 226.0 356.1 224.4 C 352.2 222.7 348.2 221.0 344.8 218.7 C 341.4 216.4 338.4 213.5 335.7 210.6 C 333.0 207.7 330.7 204.4 328.7 201.1 C 326.7 197.8 324.8 194.3 323.6 190.7 C 322.4 187.1 322.1 183.3 321.3 179.6 C 320.6 175.9 319.0 172.2 319.1 168.5 C 319.2 164.8 320.9 161.1 322.0 157.5 C 323.2 153.9 324.3 150.2 326.2 146.9 C 328.1 143.5 330.5 140.2 333.4 137.5 C 336.4 134.8 340.0 132.5 343.8 130.7 C 347.6 128.9 351.9 127.9 356.0 126.8 C 360.2 125.7 364.5 124.5 368.8 124.1 C 373.1 123.7 377.4 124.1 381.8 124.2 C 386.1 124.4 390.5 124.7 394.8 125.3 C 399.1 125.8 403.5 126.5 407.6 127.8 C 411.7 129.0 415.7 130.7 419.4 132.6 C 423.1 134.5 426.9 136.6 429.9 139.3 C 432.9 141.9 435.4 145.1 437.5 148.3 C 439.6 151.6 441.2 155.2 442.5 158.7 Z" fill="#6687c0" fill-rule="evenodd" stroke="none"/>
  </g>
  <g opacity="0.60">
    <path d="M 601.2 251.1 C 603.1 254.3 605.1 257.7 605.6 261.3 C 606.1 264.9 604.9 268.8 604.3 272.5 C 603.7 276.1 603.7 280.0 602.1 283.3 C 600.4 286.7 597.2 289.5 594.4 292.4 C 591.6 295.2 588.7 298.2 585.2 300.3 C 581.8 302.4 577.5 303.6 573.5 304.9 C 569.5 306.2 565.3 307.9 561.1 308.3 C 557.0 308.6 552.7 308.0 548.6 307.1 C 544.6 306.1 540.4 304.4 536.8 302.5 C 533.1 300.6 529.5 298.4 526.7 295.7 C 523.9 293.0 521.3 289.7 519.8 286.3 C 518.3 282.9 517.9 279.2 517.5 275.5 C 517.1 271.8 516.9 267.9 517.5 264.3 C 518.0 260.7 518.9 257.0 520.8 253.8 C 522.7 250.6 525.9 247.8 528.8 245.1 C 531.8 242.4 535.1 239.9 538.4 237.5 C 541.8 235.2 545.1 232.4 548.8 230.8 C 552.5 229.1 556.6 227.8 560.7 227.6 C 564.8 227.5 569.3 228.8 573.5 229.7 C 577.6 230.7 582.1 231.3 585.6 233.3 C 589.0 235.3 591.6 238.6 594.2 241.6 C 596.8 244.6 599.3 247.8 601.2 251.1 Z" fill="#6687c0" fill-rule="evenodd" stroke="none"/>
  </g>
  <g opacity="0.60">
    <path d="M 486.5 254.1 C 487.4 257.7 487.6 261.4 487.4 265.2 C 487.3 268.9 486.7 272.7 485.8 276.4 C 484.8 280.0 483.5 283.6 481.9 287.1 C 480.2 290.5 477.8 293.7 475.7 297.1 C 473.7 300.4 471.7 303.8 469.6 307.1 C 467.5 310.4 465.6 313.8 463.2 317.0 C 460.9 320.2 458.3 323.3 455.5 326.1 C 452.7 329.0 449.5 331.6 446.3 334.1 C 443.0 336.7 439.5 339.0 436.1 341.3 C 432.6 343.6 429.1 345.9 425.4 347.9 C 421.7 349.9 417.6 351.5 413.7 353.2 C 409.8 354.9 405.9 356.7 401.9 358.1 C 397.8 359.5 393.6 360.6 389.4 361.7 C 385.2 362.8 381.0 364.4 376.8 364.9 C 372.5 365.3 368.2 365.1 364.0 364.4 C 359.8 363.7 355.6 362.2 351.6 360.6 C 347.7 359.1 343.7 357.4 340.4 355.1 C 337.1 352.7 334.4 349.6 331.8 346.6 C 329.2 343.5 326.8 340.3 324.8 337.0 C 322.8 333.6 320.5 330.2 319.8 326.6 C 319.1 323.0 320.2 319.1 320.5 315.3 C 320.9 311.6 320.6 307.6 321.9 304.1 C 323.1 300.6 326.1 297.5 328.3 294.2 C 330.5 290.9 332.7 287.7 335.0 284.5 C 337.4 281.3 340.0 278.3 342.4 275.1 C 344.8 272.0 347.3 268.9 349.4 265.5 C 351.4 262.2 353.1 258.7 354.8 255.3 C 356.6 251.8 358.1 248.2 359.9 244.8 C 361.7 241.4 363.4 237.9 365.6 234.6 C 367.8 231.4 370.5 228.3 373.1 225.3 C 375.8 222.4 378.5 219.4 381.6 216.7 C 384.6 214.0 387.9 211.3 391.4 209.2 C 394.9 207.0 398.7 205.1 402.7 203.7 C 406.8 202.3 411.2 201.4 415.4 200.7 C 419.7 200.0 424.0 199.2 428.3 199.5 C 432.6 199.7 436.9 201.1 441.0 202.3 C 445.1 203.5 449.4 204.8 453.1 206.7 C 456.8 208.6 460.1 211.3 463.1 214.0 C 466.1 216.7 468.8 219.8 471.1 222.9 C 473.4 226.1 475.2 229.6 477.1 233.0 C 479.0 236.4 480.7 239.9 482.3 243.4 C 483.8 246.9 485.7 250.5 486.5 254.1 Z" fill="#a95b74" fill-rule="evenodd" stroke="none"/>
  </g>
  <g opacity="0.60">
    <path d="M 301.4 332.7 C 302.4 336.3 303.0 340.2 303.2 343.9 C 303.3 347.6 303.1 351.3 302.0 354.9 C 301.0 358.5 298.9 362.0 296.8 365.3 C 294.7 368.6 292.4 371.9 289.6 374.8 C 286.9 377.7 283.6 380.3 280.1 382.7 C 276.7 385.0 272.9 387.0 269.0 388.7 C 265.2 390.5 261.0 391.7 256.9 393.2 C 252.8 394.6 248.8 396.6 244.7 397.4 C 240.5 398.3 236.3 398.6 232.0 398.4 C 227.7 398.3 223.2 397.6 219.0 396.6 C 214.8 395.7 210.6 394.5 206.8 392.7 C 203.0 390.9 199.5 388.4 196.3 385.9 C 193.1 383.3 190.2 380.4 187.6 377.4 C 185.0 374.3 182.7 371.0 180.7 367.7 C 178.7 364.3 176.9 360.8 175.6 357.2 C 174.2 353.7 173.2 350.0 172.7 346.3 C 172.1 342.6 172.2 338.7 172.3 334.9 C 172.4 331.2 172.4 327.4 173.3 323.7 C 174.3 320.1 176.2 316.5 178.1 313.2 C 180.1 309.8 182.3 306.4 185.2 303.6 C 188.1 300.8 191.7 298.4 195.4 296.4 C 199.1 294.4 203.2 292.8 207.3 291.6 C 211.4 290.4 215.8 289.9 220.1 289.3 C 224.5 288.8 228.9 288.4 233.3 288.4 C 237.7 288.4 242.0 288.7 246.3 289.3 C 250.6 290.0 254.9 291.1 259.1 292.4 C 263.2 293.6 267.4 295.0 271.0 296.9 C 274.7 298.9 278.0 301.6 281.1 304.2 C 284.3 306.8 287.2 309.7 289.9 312.7 C 292.6 315.7 295.4 318.7 297.3 322.1 C 299.2 325.4 300.4 329.0 301.4 332.7 Z" fill="#6687c0" fill-rule="evenodd" stroke="none"/>
  </g>
  <g opacity="0.60">
    <path d="M 460.1 391.4 C 462.2 394.6 463.5 398.2 464.7 401.8 C 466.0 405.3 467.0 409.1 467.5 412.7 C 467.9 416.4 467.9 420.1 467.4 423.8 C 466.9 427.4 465.7 431.2 464.5 434.7 C 463.2 438.3 461.9 441.9 459.8 445.1 C 457.7 448.3 454.7 451.1 451.9 454.0 C 449.1 456.8 446.0 459.5 443.2 462.3 C 440.3 465.1 437.8 468.2 434.8 470.9 C 431.8 473.6 428.9 476.7 425.3 478.6 C 421.7 480.5 417.2 481.1 413.0 482.3 C 408.9 483.5 404.8 485.1 400.6 485.7 C 396.4 486.3 392.0 486.0 387.7 485.9 C 383.4 485.9 378.9 486.0 374.7 485.4 C 370.4 484.8 366.2 483.7 362.1 482.5 C 358.0 481.4 353.8 480.1 350.0 478.4 C 346.2 476.7 342.3 474.7 339.3 472.2 C 336.4 469.6 333.0 466.4 332.3 463.1 C 331.6 459.8 334.0 455.8 334.9 452.1 C 335.9 448.5 336.1 444.4 338.0 441.2 C 339.9 438.0 344.1 435.8 346.4 432.7 C 348.7 429.5 350.2 426.0 351.8 422.5 C 353.5 419.0 354.8 415.5 356.2 411.9 C 357.7 408.4 359.0 404.8 360.7 401.4 C 362.4 398.0 364.1 394.5 366.4 391.4 C 368.7 388.2 371.5 385.3 374.5 382.6 C 377.4 379.8 380.6 377.3 383.9 374.9 C 387.2 372.5 390.5 369.7 394.3 368.1 C 398.0 366.5 402.3 365.9 406.5 365.5 C 410.7 365.0 415.3 365.0 419.5 365.6 C 423.7 366.1 428.0 367.0 431.8 368.6 C 435.6 370.1 438.9 372.8 442.3 375.1 C 445.6 377.5 448.9 380.0 451.9 382.7 C 454.9 385.4 458.0 388.2 460.1 391.4 Z" fill="#6687c0" fill-rule="evenodd" stroke="none"/>
  </g>
  <g opacity="0.60">
    <path d="M 283.7 416.3 C 284.9 420.0 285.2 423.9 285.7 427.7 C 286.2 431.5 286.9 435.3 286.9 439.1 C 286.9 443.0 286.3 446.8 285.8 450.6 C 285.2 454.4 284.8 458.3 283.8 462.0 C 282.8 465.7 281.4 469.4 279.8 472.9 C 278.1 476.5 276.2 480.0 273.9 483.3 C 271.5 486.5 268.8 489.6 265.8 492.5 C 262.9 495.3 259.5 498.0 256.0 500.3 C 252.6 502.7 248.9 505.1 245.0 506.8 C 241.1 508.6 236.8 509.7 232.5 510.7 C 228.3 511.8 223.8 512.9 219.4 513.2 C 215.1 513.5 210.7 513.3 206.4 512.7 C 202.0 512.1 197.6 510.9 193.5 509.5 C 189.3 508.2 185.3 506.6 181.5 504.6 C 177.8 502.6 174.4 500.0 171.0 497.5 C 167.6 495.0 164.3 492.4 161.2 489.7 C 158.1 486.9 155.2 484.0 152.4 481.0 C 149.7 477.9 146.8 474.9 144.6 471.6 C 142.3 468.4 140.1 465.0 138.9 461.3 C 137.8 457.7 137.6 453.7 137.4 449.9 C 137.1 446.1 136.7 442.3 137.5 438.6 C 138.4 434.9 140.8 431.4 142.6 427.9 C 144.3 424.4 145.9 420.7 148.1 417.4 C 150.4 414.2 153.3 411.2 156.1 408.2 C 158.9 405.3 162.0 402.4 165.0 399.6 C 168.1 396.8 171.1 393.9 174.4 391.4 C 177.8 388.9 181.2 386.3 185.0 384.4 C 188.9 382.6 193.3 381.6 197.6 380.5 C 201.8 379.4 206.2 378.2 210.6 377.7 C 215.0 377.3 219.4 377.7 223.9 377.9 C 228.3 378.1 232.9 378.3 237.2 379.1 C 241.6 379.9 245.9 381.0 249.9 382.5 C 254.0 384.0 258.0 385.9 261.6 388.2 C 265.2 390.4 268.5 393.1 271.4 396.0 C 274.2 398.9 276.5 402.3 278.6 405.7 C 280.7 409.1 282.6 412.6 283.7 416.3 Z" fill="#a95b74" fill-rule="evenodd" stroke="none"/>
  </g>
  <use x="398.1" y="142.9" xlink:href="#a13"/>
  <line x1="415.7" y1="156.0" x2="436.7" y2="193.0" stroke="#454545" stroke-width="10.3" stroke-linecap="round"/>
  <line x1="400.4" y1="164.8" x2="421.3" y2="201.7" stroke="#454545" stroke-width="10.3" stroke-linecap="round"/>
  <use x="644.3" y="151.5" xlink:href="#a7"/>
  <line x1="627.4" y1="169.2" x2="582.4" y2="216.4" stroke="#434343" stroke-width="14.7" stroke-linecap="round"/>
  <use x="440.1" y="216.9" xlink:href="#a6"/>
  <line x1="468.4" y1="220.5" x2="539.9" y2="229.7" stroke="#343434" stroke-width="14.7" stroke-linecap="round"/>
  <line x1="425.5" y1="234.3" x2="388.7" y2="278.2" stroke="#262626" stroke-width="14.7" stroke-linecap="round"/>
  <use x="566.5" y="233.1" xlink:href="#a11"/>
  <line x1="578.0" y1="248.8" x2="608.9" y2="291.1" stroke="#222222" stroke-width="14.7" stroke-linecap="round"/>
  <use x="157.6" y="241.2" xlink:href="#a1"/>
  <line x1="178.3" y1="256.2" x2="231.9" y2="295.1" stroke="#1c1c1c" stroke-width="14.7" stroke-linecap="round"/>
  <use x="374.1" y="295.7" xlink:href="#a0"/>
  <line x1="347.0" y1="307.6" x2="278.7" y2="315.1" stroke="#161616" stroke-width="10.3" stroke-linecap="round" stroke-dasharray="10.3,20.6"/>
  <line x1="345.1" y1="290.0" x2="276.7" y2="297.6" stroke="#161616" stroke-width="10.3" stroke-linecap="round"/>
  <line x1="393.9" y1="309.8" x2="423.0" y2="354.2" stroke="#0f0f0f" stroke-width="10.3" stroke-linecap="round"/>
  <line x1="379.1" y1="319.5" x2="408.1" y2="363.9" stroke="#0f0f0f" stroke-width="10.3" stroke-linecap="round" stroke-dasharray="10.3,20.6"/>
  <use x="621.1" y="307.7" xlink:href="#a5"/>
  <line x1="648.7" y1="297.3" x2="702.0" y2="294.4" stroke="#121212" stroke-width="10.3" stroke-linecap="round"/>
  <line x1="649.7" y1="315.0" x2="703.0" y2="312.0" stroke="#121212" stroke-width="10.3" stroke-linecap="round"/>
  <line x1="605.6" y1="327.4" x2="566.3" y2="377.1" stroke="#0c0c0c" stroke-width="14.7" stroke-linecap="round"/>
  <use x="251.3" y="309.3" xlink:href="#a9"/>
  <line x1="256.4" y1="330.1" x2="247.3" y2="378.2" stroke="#0a0a0a" stroke-width="10.3" stroke-linecap="round" stroke-dasharray="10.3,20.6"/>
  <line x1="239.0" y1="326.8" x2="229.9" y2="374.9" stroke="#0a0a0a" stroke-width="10.3" stroke-linecap="round"/>
  <use x="727.7" y="301.8" xlink:href="#a12"/>
  <use x="428.0" y="378.0" xlink:href="#a2"/>
  <line x1="456.2" y1="382.0" x2="525.2" y2="391.8" stroke="#070707" stroke-width="14.7" stroke-linecap="round"/>
  <line x1="413.1" y1="399.4" x2="365.5" y2="433.2" stroke="#030303" stroke-width="10.3" stroke-linecap="round"/>
  <line x1="402.8" y1="385.0" x2="355.3" y2="418.8" stroke="#030303" stroke-width="10.3" stroke-linecap="round" stroke-dasharray="10.3,20.6"/>
  <use x="551.7" y="395.6" xlink:href="#a8"/>
  <line x1="562.7" y1="409.0" x2="593.4" y2="446.6" stroke="#010101" stroke-width="14.7" stroke-linecap="round"/>
  <use x="234.7" y="396.9" xlink:href="#a4"/>
  <line x1="263.3" y1="398.7" x2="321.0" y2="421.7" stroke="#010101" stroke-width="10.3" stroke-linecap="round" stroke-dasharray="10.3,20.6"/>
  <line x1="256.8" y1="415.2" x2="314.4" y2="438.1" stroke="#010101" stroke-width="10.3" stroke-linecap="round"/>
  <use x="341.5" y="439.4" xlink:href="#a10"/>
  <use x="605.0" y="460.8" xlink:href="#a3"/>
  <g opacity="0.60">
    <path d="M 442.5 102.9 C 443.9 106.5 445.0 110.2 445.9 113.9 C 446.9 117.6 447.7 121.3 448.0 125.0 C 448.3 128.8 447.9 132.6 447.7 136.4 C 447.5 140.1 447.6 144.0 446.7 147.6 C 445.9 151.3 444.4 155.0 442.7 158.4 C 440.9 161.9 438.9 165.3 436.3 168.3 C 433.7 171.4 430.6 174.2 427.2 176.5 C 423.7 178.8 419.7 180.6 415.7 182.1 C 411.8 183.7 407.5 185.0 403.3 185.8 C 399.0 186.5 394.6 186.6 390.2 186.7 C 385.9 186.8 381.4 186.8 377.0 186.4 C 372.7 186.0 368.3 185.5 364.2 184.3 C 360.0 183.2 355.9 181.6 352.2 179.7 C 348.5 177.7 344.9 175.4 341.8 172.8 C 338.7 170.2 336.0 167.1 333.8 163.9 C 331.5 160.7 329.6 157.2 328.2 153.6 C 326.9 150.1 326.0 146.3 325.6 142.6 C 325.1 138.9 325.3 135.0 325.4 131.2 C 325.4 127.5 325.4 123.7 325.9 119.9 C 326.4 116.2 327.4 112.5 328.4 108.8 C 329.5 105.1 330.4 101.4 332.0 97.9 C 333.6 94.4 335.6 90.9 338.0 87.8 C 340.4 84.7 343.1 81.6 346.4 79.1 C 349.6 76.6 353.5 74.6 357.3 72.7 C 361.1 70.9 365.1 68.9 369.2 68.0 C 373.4 67.1 377.9 67.3 382.2 67.2 C 386.6 67.1 391.2 66.7 395.4 67.3 C 399.7 67.9 403.9 69.1 407.9 70.6 C 411.9 72.1 415.8 74.0 419.4 76.2 C 423.0 78.3 426.5 80.6 429.5 83.4 C 432.5 86.1 435.1 89.3 437.2 92.5 C 439.4 95.8 441.0 99.4 442.5 102.9 Z" fill="url(#mo_neg_front)" fill-rule="evenodd" stroke="none"/>
  </g>
  <g opacity="0.60">
    <path d="M 592.4 212.3 C 593.2 216.0 591.9 219.9 591.5 223.7 C 591.0 227.5 591.3 231.7 589.7 235.2 C 588.1 238.6 585.1 241.7 582.0 244.4 C 578.9 247.0 574.8 249.0 571.1 251.1 C 567.3 253.2 563.4 256.3 559.4 256.8 C 555.5 257.4 551.3 255.5 547.2 254.2 C 543.2 253.0 538.9 251.2 535.2 249.2 C 531.4 247.1 527.5 244.9 525.0 242.0 C 522.4 239.0 521.0 235.3 520.0 231.7 C 519.1 228.1 519.0 223.9 519.2 220.2 C 519.4 216.4 519.6 212.5 521.1 209.0 C 522.7 205.6 525.4 202.1 528.5 199.4 C 531.6 196.8 535.7 195.0 539.6 193.2 C 543.5 191.4 547.8 189.4 552.0 188.8 C 556.2 188.2 560.6 188.5 564.7 189.4 C 568.8 190.4 573.2 192.2 576.8 194.3 C 580.4 196.4 583.8 199.0 586.4 202.0 C 589.0 205.0 591.5 208.7 592.4 212.3 Z" fill="url(#mo_neg_front)" fill-rule="evenodd" stroke="none"/>
  </g>
  <g opacity="0.60">
    <path d="M 486.5 176.7 C 488.3 180.1 489.9 183.7 490.9 187.4 C 491.8 191.0 491.9 194.8 492.1 198.5 C 492.3 202.3 492.6 206.1 492.2 209.8 C 491.8 213.5 490.9 217.2 489.7 220.8 C 488.6 224.4 487.1 228.0 485.3 231.4 C 483.5 234.8 481.4 238.1 479.1 241.3 C 476.7 244.4 474.0 247.4 471.1 250.2 C 468.3 253.1 465.1 255.7 462.0 258.3 C 458.8 260.9 455.6 263.5 452.3 266.0 C 449.0 268.5 445.7 270.9 442.3 273.3 C 439.0 275.7 435.5 278.0 432.2 280.5 C 428.9 282.9 425.6 285.4 422.3 287.9 C 419.0 290.4 415.8 292.9 412.5 295.4 C 409.3 297.9 406.2 300.7 402.7 302.8 C 399.2 305.0 395.4 306.9 391.5 308.5 C 387.6 310.2 383.4 311.7 379.2 312.6 C 375.1 313.4 370.7 314.1 366.5 313.6 C 362.4 313.2 358.1 311.5 354.2 309.8 C 350.4 308.2 346.4 306.4 343.3 303.8 C 340.2 301.3 337.9 297.8 335.9 294.5 C 333.9 291.2 332.4 287.6 331.5 283.9 C 330.7 280.3 331.0 276.5 330.9 272.7 C 330.8 269.0 330.7 265.2 330.9 261.4 C 331.2 257.7 331.8 253.9 332.3 250.2 C 332.8 246.5 333.5 242.7 334.1 239.0 C 334.7 235.3 335.3 231.6 336.0 227.8 C 336.6 224.1 337.1 220.4 338.0 216.7 C 338.9 213.0 340.0 209.4 341.2 205.8 C 342.5 202.2 343.8 198.6 345.4 195.1 C 347.0 191.6 348.8 188.1 350.9 184.9 C 353.1 181.6 355.7 178.6 358.4 175.6 C 361.0 172.6 363.9 169.8 366.9 167.1 C 370.0 164.4 373.2 161.8 376.5 159.4 C 379.9 157.0 383.4 154.7 387.0 152.6 C 390.7 150.5 394.3 148.3 398.4 146.9 C 402.4 145.6 406.9 145.3 411.2 144.5 C 415.5 143.7 419.7 142.3 424.0 142.2 C 428.3 142.1 432.6 143.3 436.9 144.0 C 441.2 144.6 445.7 145.1 449.8 146.3 C 453.9 147.5 457.8 149.3 461.5 151.3 C 465.1 153.3 468.5 155.8 471.7 158.3 C 474.8 160.9 477.9 163.7 480.3 166.8 C 482.8 169.9 484.8 173.3 486.5 176.7 Z" fill="url(#mo_pos_front)" fill-rule="evenodd" stroke="none"/>
  </g>
  <g opacity="0.60">
    <path d="M 301.4 280.6 C 302.7 284.0 302.3 287.9 302.5 291.6 C 302.7 295.4 303.5 299.3 302.8 302.9 C 302.1 306.5 300.2 310.0 298.3 313.3 C 296.4 316.6 293.8 319.7 291.4 322.8 C 289.0 326.0 286.8 329.3 284.0 332.1 C 281.2 334.9 278.0 337.7 274.4 339.7 C 270.9 341.7 266.7 343.2 262.6 344.3 C 258.5 345.5 254.1 346.1 249.8 346.6 C 245.6 347.2 241.2 347.9 237.0 347.7 C 232.7 347.5 228.4 346.3 224.2 345.3 C 220.0 344.4 215.6 343.6 211.7 342.0 C 207.9 340.4 204.2 338.2 201.0 335.7 C 197.8 333.2 195.1 330.2 192.5 327.1 C 190.0 324.1 187.9 320.8 185.7 317.6 C 183.5 314.3 180.8 311.2 179.3 307.8 C 177.8 304.3 177.4 300.5 176.8 296.9 C 176.2 293.2 175.4 289.3 175.6 285.7 C 175.7 282.0 176.7 278.3 177.8 274.8 C 179.0 271.2 180.7 267.6 182.6 264.3 C 184.5 261.0 186.7 257.7 189.3 254.7 C 191.9 251.8 195.0 249.0 198.2 246.5 C 201.4 244.0 204.9 241.5 208.7 239.8 C 212.4 238.1 216.7 237.2 220.8 236.2 C 225.0 235.3 229.5 234.1 233.7 234.1 C 237.9 234.0 241.9 234.8 245.9 235.9 C 250.0 236.9 254.0 238.7 258.0 240.3 C 261.9 241.9 266.0 243.4 269.6 245.4 C 273.1 247.5 276.5 250.0 279.5 252.7 C 282.5 255.3 285.0 258.5 287.5 261.5 C 290.1 264.6 292.4 267.7 294.7 270.9 C 297.0 274.1 300.1 277.1 301.4 280.6 Z" fill="url(#mo_neg_front)" fill-rule="evenodd" stroke="none"/>
  </g>
  <g opacity="0.60">
    <path d="M 583.5 418.2 C 585.0 421.5 584.4 425.5 584.7 429.2 C 585.1 432.9 586.6 436.9 585.8 440.3 C 584.9 443.8 582.3 447.1 579.9 450.0 C 577.4 453.0 574.1 455.6 570.8 458.0 C 567.6 460.3 564.0 463.2 560.2 464.2 C 556.3 465.2 551.8 464.3 547.6 464.0 C 543.4 463.6 538.8 463.2 534.9 462.0 C 530.9 460.8 527.2 459.0 523.9 456.8 C 520.5 454.6 517.4 451.7 514.8 448.8 C 512.2 446.0 509.5 442.9 508.2 439.5 C 507.0 436.1 507.5 432.1 507.3 428.4 C 507.1 424.7 506.1 420.9 507.2 417.5 C 508.4 414.0 511.5 411.0 514.0 408.0 C 516.5 404.9 519.0 401.8 522.0 399.2 C 525.1 396.7 528.3 393.8 532.1 392.8 C 536.0 391.7 540.8 392.7 545.1 392.8 C 549.4 392.9 554.1 392.1 557.8 393.4 C 561.6 394.7 564.6 398.1 567.6 400.7 C 570.6 403.3 573.5 406.1 576.1 409.1 C 578.8 412.0 582.1 414.8 583.5 418.2 Z" fill="url(#mo_neg_front)" fill-rule="evenodd" stroke="none"/>
  </g>
  <g opacity="0.60">
    <path d="M 460.1 333.6 C 462.4 336.8 464.2 340.4 465.4 343.9 C 466.7 347.5 467.2 351.3 467.6 355.0 C 468.1 358.7 468.2 362.6 467.9 366.3 C 467.6 370.0 467.2 373.8 466.0 377.3 C 464.8 380.9 462.9 384.4 460.8 387.7 C 458.7 391.0 456.4 394.3 453.4 397.0 C 450.5 399.7 446.7 401.9 443.0 403.9 C 439.4 405.9 435.4 407.7 431.4 409.2 C 427.4 410.6 423.2 411.7 419.0 412.8 C 414.8 413.9 410.6 415.0 406.4 415.9 C 402.1 416.9 397.9 417.8 393.6 418.4 C 389.3 419.0 384.9 419.3 380.6 419.7 C 376.2 420.2 371.9 420.7 367.5 421.0 C 363.2 421.3 358.5 421.7 354.4 421.4 C 350.3 421.2 344.7 421.5 342.8 419.3 C 341.0 417.1 343.1 412.0 343.3 408.3 C 343.6 404.6 343.7 400.7 344.2 397.0 C 344.7 393.3 345.7 389.6 346.3 385.8 C 346.9 382.1 347.0 378.3 347.9 374.6 C 348.8 371.0 350.3 367.4 351.6 363.8 C 352.9 360.2 354.1 356.6 355.7 353.1 C 357.2 349.5 358.7 346.0 360.7 342.6 C 362.7 339.3 365.1 336.0 367.8 333.2 C 370.6 330.3 373.8 327.7 377.3 325.5 C 380.8 323.3 384.8 321.6 388.8 320.1 C 392.8 318.7 397.0 317.4 401.3 316.8 C 405.5 316.2 410.0 316.3 414.4 316.3 C 418.7 316.3 423.2 316.0 427.4 316.6 C 431.7 317.1 436.0 318.4 440.0 319.8 C 444.0 321.2 448.3 322.7 451.7 325.0 C 455.0 327.3 457.8 330.5 460.1 333.6 Z" fill="url(#mo_neg_front)" fill-rule="evenodd" stroke="none"/>
  </g>
  <g opacity="0.60">
    <path d="M 292.6 371.9 C 293.4 375.6 293.1 379.5 293.3 383.3 C 293.5 387.1 294.3 391.1 293.5 394.8 C 292.7 398.5 290.5 401.9 288.5 405.4 C 286.6 408.8 284.4 412.2 281.8 415.3 C 279.3 418.4 276.4 421.5 273.1 424.0 C 269.8 426.4 265.8 428.3 261.9 430.0 C 257.9 431.8 253.7 433.1 249.4 434.2 C 245.2 435.3 240.8 436.1 236.5 436.8 C 232.1 437.4 227.6 437.6 223.2 437.9 C 218.7 438.3 214.3 438.7 209.9 438.8 C 205.4 438.8 200.9 438.7 196.5 438.4 C 192.1 438.0 187.5 437.9 183.4 436.7 C 179.3 435.6 175.4 433.4 171.8 431.2 C 168.2 429.0 164.7 426.5 161.9 423.6 C 159.0 420.7 156.8 417.3 154.8 413.9 C 152.8 410.6 151.2 406.9 149.9 403.2 C 148.7 399.6 147.8 395.8 147.2 392.1 C 146.7 388.3 146.8 384.4 146.8 380.6 C 146.8 376.8 146.8 372.9 147.2 369.1 C 147.7 365.3 148.6 361.5 149.6 357.8 C 150.5 354.1 151.5 350.3 153.1 346.8 C 154.8 343.3 156.9 339.8 159.5 336.7 C 162.1 333.7 165.3 330.8 168.7 328.4 C 172.1 326.1 176.1 324.0 180.1 322.5 C 184.1 321.0 188.5 320.0 192.8 319.2 C 197.1 318.3 201.6 317.7 206.0 317.3 C 210.4 316.9 214.9 316.8 219.3 316.7 C 223.7 316.7 228.3 316.8 232.7 317.2 C 237.0 317.7 241.4 318.2 245.6 319.4 C 249.8 320.7 253.8 322.5 257.6 324.5 C 261.4 326.5 265.0 328.8 268.2 331.4 C 271.3 334.1 274.0 337.2 276.4 340.4 C 278.9 343.6 280.9 347.1 282.8 350.5 C 284.7 354.0 286.4 357.5 288.0 361.1 C 289.7 364.7 291.7 368.2 292.6 371.9 Z" fill="url(#mo_pos_front)" fill-rule="evenodd" stroke="none"/>
  </g>
</svg>