<svg xmlns="http://www.w3.org/2000/svg" xmlns:xlink="http://www.w3.org/1999/xlink" width="800" height="421">
  <rect width="100%" height="100%" fill="#ffffff"/>
  <defs>
    <g id="a0"><radialGradient id="g0" cx=".5" cy=".5" fx=".33" fy=".33" r=".66"><stop offset="0%" stop-color="#c3c3c3"/><stop offset="100%" stop-color="#888888"/></radialGradient><circle cx="0" cy="0" r="36.0" fill="url(#g0)" stroke="#000000" stroke-width="6.7"/></g>
    <g id="a1"><radialGradient id="g1" cx=".5" cy=".5" fx=".33" fy=".33" r=".66"><stop offset="0%" stop-color="#ff5555"/><stop offset="100%" stop-color="#cc0a0a"/></radialGradient><circle cx="0" cy="0" r="32.3" fill="url(#g1)" stroke="#000000" stroke-width="6.7"/></g>
    <g id="a2"><radialGradient id="g2" cx=".5" cy=".5" fx=".33" fy=".33" r=".66"><stop offset="0%" stop-color="#ff7373"/><stop offset="100%" stop-color="#d53535"/></radialGradient><circle cx="0" cy="0" r="32.3" fill="url(#g2)" stroke="#404040" stroke-width="6.7"/></g>
    <g id="a3"><radialGradient id="g3" cx=".5" cy=".5" fx=".33" fy=".33" r=".66"><stop offset="0%" stop-color="#c3c3c3"/><stop offset="100%" stop-color="#898989"/></radialGradient><circle cx="0" cy="0" r="36.0" fill="url(#g3)" stroke="#050505" stroke-width="6.7"/></g>
    <g id="a4"><radialGradient id="g4" cx=".5" cy=".5" fx=".33" fy=".33" r=".66"><stop offset="0%" stop-color="#ffffff"/><stop offset="100%" stop-color="#d9d9d9"/></radialGradient><circle cx="0" cy="0" r="18.9" fill="url(#g4)" stroke="#5d5d5d" stroke-width="6.7"/></g>
    <g id="a5"><radialGradient id="g5" cx=".5" cy=".5" fx=".33" fy=".33" r=".66"><stop offset="0%" stop-color="#ffffff"/><stop offset="100%" stop-color="#cdcdcd"/></radialGradient><circle cx="0" cy="0" r="18.9" fill="url(#g5)" stroke="#0b0b0b" stroke-width="6.7"/></g>
    <g id="a6"><radialGradient id="g6" cx=".5" cy=".5" fx=".33" fy=".33" r=".66"><stop offset="0%" stop-color="#ffffff"/><stop offset="100%" stop-color="#cccccc"/></radialGradient><circle cx="0" cy="0" r="18.9" fill="url(#g6)" stroke="#000000" stroke-width="6.7"/></g>
    <g id="a7"><radialGradient id="g7" cx=".5" cy=".5" fx=".33" fy=".33" r=".66"><stop offset="0%" stop-color="#ffffff"/><stop offset="100%" stop-color="#d1d1d1"/></radialGradient><circle cx="0" cy="0" r="18.9" fill="url(#g7)" stroke="#252525" stroke-width="6.7"/></g>
    <g id="a8"><radialGradient id="g8" cx=".5" cy=".5" fx=".33" fy=".33" r=".66"><stop offset="0%" stop-color="#6e84fa"/><stop offset="100%" stop-color="#2740c6"/></radialGradient><circle cx="0" cy="0" r="33.9" fill="url(#g8)" stroke="#010101" stroke-width="6.7"/></g>
    <g id="a9"><radialGradient id="g9" cx=".5" cy=".5" fx=".33" fy=".33" r=".66"><stop offset="0%" stop-color="#ffffff"/><stop offset="100%" stop-color="#cccccc"/></radialGradient><circle cx="0" cy="0" r="18.9" fill="url(#g9)" stroke="#000000" stroke-width="6.7"/></g>
    <g id="a10"><radialGradient id="g10" cx=".5" cy=".5" fx=".33" fy=".33" r=".66"><stop offset="0%" stop-color="#ffffff"/><stop offset="100%" stop-color="#cdcdcd"/></radialGradient><circle cx="0" cy="0" r="18.9" fill="url(#g10)" stroke="#0a0a0a" stroke-width="6.7"/></g>
    <g id="a11"><radialGradient id="g11" cx=".5" cy=".5" fx=".33" fy=".33" r=".66"><stop offset="0%" stop-color="#c4c4c4"/><stop offset="100%" stop-color="#8b8b8b"/></radialGradient><circle cx="0" cy="0" r="36.0" fill="url(#g11)" stroke="#090909" stroke-width="6.7"/></g>
    <g id="a12"><radialGradient id="g12" cx=".5" cy=".5" fx=".33" fy=".33" r=".66"><stop offset="0%" stop-color="#ffffff"/><stop offset="100%" stop-color="#dedede"/></radialGradient><circle cx="0" cy="0" r="18.9" fill="url(#g12)" stroke="#818181" stroke-width="6.7"/></g>
    <g id="a13"><radialGradient id="g13" cx=".5" cy=".5" fx=".33" fy=".33" r=".66"><stop offset="0%" stop-color="#ffffff"/><stop offset="100%" stop-color="#cccccc"/></radialGradient><circle cx="0" cy="0" r="18.9" fill="url(#g13)" stroke="#000000" stroke-width="6.7"/></g>
    <g id="a14"><radialGradient id="g14" cx=".5" cy=".5" fx=".33" fy=".33" r=".66"><stop offset="0%" stop-color="#ffffff"/><stop offset="100%" stop-color="#cccccc"/></radialGradient><circle cx="0" cy="0" r="18.9" fill="url(#g14)" stroke="#000000" stroke-width="6.7"/></g>
  </defs>
  <use x="647.5" y="126.9" xlink:href="#a12"/>
  <line x1="645.0" y1="129.3" x2="636.4" y2="137.6" stroke="#1d1d1d" stroke-width="16.8" stroke-linecap="round"/>
  <use x="111.3" y="136.9" xlink:href="#a4"/>
  <line x1="113.4" y1="145.6" x2="120.7" y2="176.0" stroke="#141414" stroke-width="16.8" stroke-linecap="round"/>
  <use x="335.1" y="268.2" xlink:href="#a2"/>
  <line x1="363.1" y1="271.4" x2="416.2" y2="277.5" stroke="#1c1c1c" stroke-width="16.8" stroke-linecap="round"/>
  <line x1="321.1" y1="255.5" x2="286.4" y2="224.2" stroke="#090909" stroke-width="16.8" stroke-linecap="round"/>
  <use x="432.6" y="279.4" xlink:href="#a7"/>
  <line x1="448.5" y1="279.5" x2="560.6" y2="280.5" stroke="#070707" stroke-width="16.8" stroke-linecap="round" stroke-dasharray="1.7,33.5"/>
  <use x="78.1" y="290.6" xlink:href="#a5"/>
  <line x1="85.4" y1="275.3" x2="110.9" y2="221.5" stroke="#040404" stroke-width="16.8" stroke-linecap="round"/>
  <use x="662.9" y="345.1" xlink:href="#a10"/>
  <line x1="650.4" y1="334.3" x2="611.2" y2="300.2" stroke="#020202" stroke-width="16.8" stroke-linecap="round"/>
  <use x="631.8" y="142.2" xlink:href="#a11"/>
  <line x1="622.3" y1="172.7" x2="597.8" y2="252.0" stroke="#020202" stroke-width="16.8" stroke-linecap="round"/>
  <line x1="608.1" y1="122.5" x2="564.3" y2="86.2" stroke="#010101" stroke-width="16.8" stroke-linecap="round"/>
  <line x1="659.1" y1="134.3" x2="709.7" y2="119.8" stroke="#010101" stroke-width="16.8" stroke-linecap="round"/>
  <use x="124.7" y="192.5" xlink:href="#a3"/>
  <line x1="156.2" y1="196.3" x2="239.2" y2="206.3" stroke="#010101" stroke-width="16.8" stroke-linecap="round"/>
  <line x1="110.2" y1="176.8" x2="83.6" y2="147.9" stroke="#000000" stroke-width="16.8" stroke-linecap="round"/>
  <use x="588.9" y="280.7" xlink:href="#a8"/>
  <line x1="582.5" y1="284.4" x2="571.0" y2="290.8" stroke="#000000" stroke-width="16.8" stroke-linecap="round"/>
  <use x="551.8" y="75.9" xlink:href="#a13"/>
  <use x="270.8" y="210.1" xlink:href="#a0"/>
  <line x1="280.0" y1="192.5" x2="307.0" y2="175.6" stroke="#000000" stroke-width="11.7" stroke-linecap="round"/>
  <line x1="290.6" y1="209.6" x2="317.6" y2="192.7" stroke="#000000" stroke-width="11.7" stroke-linecap="round"/>
  <use x="724.0" y="115.7" xlink:href="#a14"/>
  <use x="76.0" y="139.6" xlink:href="#a6"/>
  <use x="567.4" y="292.8" xlink:href="#a9"/>
  <use x="325.3" y="176.0" xlink:href="#a1"/>
</svg>