<svg xmlns="http://www.w3.org/2000/svg" xmlns:xlink="http://www.w3.org/1999/xlink" width="608" height="800">
  <rect width="100%" height="100%" fill="#ffffff"/>
  <defs>
    <g id="a0"><radialGradient id="g0" cx=".5" cy=".5" fx=".33" fy=".33" r=".66"><stop offset="0%" stop-color="#cacaca"/><stop offset="100%" stop-color="#979797"/></radialGradient><circle cx="0" cy="0" r="20.5" fill="url(#g0)" stroke="#2d2d2d" stroke-width="3.8"/></g>
    <g id="a1"><radialGradient id="g1" cx=".5" cy=".5" fx=".33" fy=".33" r=".66"><stop offset="0%" stop-color="#b958b9"/><stop offset="100%" stop-color="#7f117f"/></radialGradient><circle cx="0" cy="0" r="23.9" fill="url(#g1)" stroke="#191919" stroke-width="3.8"/></g>
    <g id="a2"><radialGradient id="g2" cx=".5" cy=".5" fx=".33" fy=".33" r=".66"><stop offset="0%" stop-color="#ffffff"/><stop offset="100%" stop-color="#dadada"/></radialGradient><circle cx="0" cy="0" r="10.8" fill="url(#g2)" stroke="#666666" stroke-width="3.8"/></g>
    <g id="a3"><radialGradient id="g3" cx=".5" cy=".5" fx=".33" fy=".33" r=".66"><stop offset="0%" stop-color="#ffffff"/><stop offset="100%" stop-color="#d1d1d1"/></radialGradient><circle cx="0" cy="0" r="10.8" fill="url(#g3)" stroke="#242424" stroke-width="3.8"/></g>
    <g id="a4"><radialGradient id="g4" cx=".5" cy=".5" fx=".33" fy=".33" r=".66"><stop offset="0%" stop-color="#ffffff"/><stop offset="100%" stop-color="#cecece"/></radialGradient><circle cx="0" cy="0" r="10.8" fill="url(#g4)" stroke="#121212" stroke-width="3.8"/></g>
    <g id="a5"><radialGradient id="g5" cx=".5" cy=".5" fx=".33" fy=".33" r=".66"><stop offset="0%" stop-color="#d7d7d7"/><stop offset="100%" stop-color="#b1b1b1"/></radialGradient><circle cx="0" cy="0" r="20.5" fill="url(#g5)" stroke="#7d7d7d" stroke-width="3.8"/></g>
    <g id="a6"><radialGradient id="g6" cx=".5" cy=".5" fx=".33" fy=".33" r=".66"><stop offset="0%" stop-color="#cbcbcb"/><stop offset="100%" stop-color="#989898"/></radialGradient><circle cx="0" cy="0" r="20.5" fill="url(#g6)" stroke="#333333" stroke-width="3.8"/></g>
    <g id="a7"><radialGradient id="g7" cx=".5" cy=".5" fx=".33" fy=".33" r=".66"><stop offset="0%" stop-color="#c6c6c6"/><stop offset="100%" stop-color="#8f8f8f"/></radialGradient><circle cx="0" cy="0" r="20.5" fill="url(#g7)" stroke="#161616" stroke-width="3.8"/></g>
    <g id="a8"><radialGradient id="g8" cx=".5" cy=".5" fx=".33" fy=".33" r=".66"><stop offset="0%" stop-color="#ffcfcf"/><stop offset="100%" stop-color="#d09a9a"/></radialGradient><circle cx="0" cy="0" r="22.3" fill="url(#g8)" stroke="#212121" stroke-width="3.8"/></g>
    <g id="a9"><radialGradient id="g9" cx=".5" cy=".5" fx=".33" fy=".33" r=".66"><stop offset="0%" stop-color="#ff8181"/><stop offset="100%" stop-color="#d94a4a"/></radialGradient><circle cx="0" cy="0" r="18.4" fill="url(#g9)" stroke="#5f5f5f" stroke-width="3.8"/></g>
    <g id="a10"><radialGradient id="g10" cx=".5" cy=".5" fx=".33" fy=".33" r=".66"><stop offset="0%" stop-color="#d0d0d0"/><stop offset="100%" stop-color="#a3a3a3"/></radialGradient><circle cx="0" cy="0" r="20.5" fill="url(#g10)" stroke="#535353" stroke-width="3.8"/></g>
    <g id="a11"><radialGradient id="g11" cx=".5" cy=".5" fx=".33" fy=".33" r=".66"><stop offset="0%" stop-color="#dfdfdf"/><stop offset="100%" stop-color="#c0c0c0"/></radialGradient><circle cx="0" cy="0" r="20.5" fill="url(#g11)" stroke="#acacac" stroke-width="3.8"/></g>
    <g id="a12"><radialGradient id="g12" cx=".5" cy=".5" fx=".33" fy=".33" r=".66"><stop offset="0%" stop-color="#cfcfcf"/><stop offset="100%" stop-color="#9f9f9f"/></radialGradient><circle cx="0" cy="0" r="20.5" fill="url(#g12)" stroke="#494949" stroke-width="3.8"/></g>
    <g id="a13"><radialGradient id="g13" cx=".5" cy=".5" fx=".33" fy=".33" r=".66"><stop offset="0%" stop-color="#c6c6c6"/><stop offset="100%" stop-color="#8f8f8f"/></radialGradient><circle cx="0" cy="0" r="20.5" fill="url(#g13)" stroke="#171717" stroke-width="3.8"/></g>
    <g id="a14"><radialGradient id="g14" cx=".5" cy=".5" fx=".33" fy=".33" r=".66"><stop offset="0%" stop-color="#c3c3c3"/><stop offset="100%" stop-color="#898989"/></radialGradient><circle cx="0" cy="0" r="20.5" fill="url(#g14)" stroke="#030303" stroke-width="3.8"/></g>
    <g id="a15"><radialGradient id="g15" cx=".5" cy=".5" fx=".33" fy=".33" r=".66"><stop offset="0%" stop-color="#c8c8c8"/><stop offset="100%" stop-color="#929292"/></radialGradient><circle cx="0" cy="0" r="20.5" fill="url(#g15)" stroke="#202020" stroke-width="3.8"/></g>
    <g id="a16"><radialGradient id="g16" cx=".5" cy=".5" fx=".33" fy=".33" r=".66"><stop offset="0%" stop-color="#ff5858"/><stop offset="100%" stop-color="#cd0e0e"/></radialGradient><circle cx="0" cy="0" r="18.4" fill="url(#g16)" stroke="#070707" stroke-width="3.8"/></g>
    <g id="a17"><radialGradient id="g17" cx=".5" cy=".5" fx=".33" fy=".33" r=".66"><stop offset="0%" stop-color="#c3c3c3"/><stop offset="100%" stop-color="#888888"/></radialGradient><circle cx="0" cy="0" r="20.5" fill="url(#g17)" stroke="#000000" stroke-width="3.8"/></g>
    <g id="a18"><radialGradient id="g18" cx=".5" cy=".5" fx=".33" fy=".33" r=".66"><stop offset="0%" stop-color="#c3c3c3"/><stop offset="100%" stop-color="#888888"/></radialGradient><circle cx="0" cy="0" r="20.5" fill="url(#g18)" stroke="#000000" stroke-width="3.8"/></g>
    <g id="a19"><radialGradient id="g19" cx=".5" cy=".5" fx=".33" fy=".33" r=".66"><stop offset="0%" stop-color="#c3c3c3"/><stop offset="100%" stop-color="#898989"/></radialGradient><circle cx="0" cy="0" r="20.5" fill="url(#g19)" stroke="#040404" stroke-width="3.8"/></g>
    <g id="a20"><radialGradient id="g20" cx=".5" cy=".5" fx=".33" fy=".33" r=".66"><stop offset="0%" stop-color="#c8c8c8"/><stop offset="100%" stop-color="#939393"/></radialGradient><circle cx="0" cy="0" r="20.5" fill="url(#g20)" stroke="#222222" stroke-width="3.8"/></g>
    <g id="a21"><radialGradient id="g21" cx=".5" cy=".5" fx=".33" fy=".33" r=".66"><stop offset="0%" stop-color="#889afa"/><stop offset="100%" stop-color="#4e63d0"/></radialGradient><circle cx="0" cy="0" r="19.3" fill="url(#g21)" stroke="#434343" stroke-width="3.8"/></g>
    <g id="a22"><radialGradient id="g22" cx=".5" cy=".5" fx=".33" fy=".33" r=".66"><stop offset="0%" stop-color="#cccccc"/><stop offset="100%" stop-color="#9a9a9a"/></radialGradient><circle cx="0" cy="0" r="20.5" fill="url(#g22)" stroke="#383838" stroke-width="3.8"/></g>
    <g id="a23"><radialGradient id="g23" cx=".5" cy=".5" fx=".33" fy=".33" r=".66"><stop offset="0%" stop-color="#c4c4c4"/><stop offset="100%" stop-color="#8a8a8a"/></radialGradient><circle cx="0" cy="0" r="20.5" fill="url(#g23)" stroke="#070707" stroke-width="3.8"/></g>
    <g id="a24"><radialGradient id="g24" cx=".5" cy=".5" fx=".33" fy=".33" r=".66"><stop offset="0%" stop-color="#ff5555"/><stop offset="100%" stop-color="#cc0a0a"/></radialGradient><circle cx="0" cy="0" r="18.4" fill="url(#g24)" stroke="#000000" stroke-width="3.8"/></g>
    <g id="a25"><radialGradient id="g25" cx=".5" cy=".5" fx=".33" fy=".33" r=".66"><stop offset="0%" stop-color="#ffffff"/><stop offset="100%" stop-color="#dcdcdc"/></radialGradient><circle cx="0" cy="0" r="10.8" fill="url(#g25)" stroke="#757575" stroke-width="3.8"/></g>
    <g id="a26"><radialGradient id="g26" cx=".5" cy=".5" fx=".33" fy=".33" r=".66"><stop offset="0%" stop-color="#ffffff"/><stop offset="100%" stop-color="#e0e0e0"/></radialGradient><circle cx="0" cy="0" r="10.8" fill="url(#g26)" stroke="#909090" stroke-width="3.8"/></g>
    <g id="a27"><radialGradient id="g27" cx=".5" cy=".5" fx=".33" fy=".33" r=".66"><stop offset="0%" stop-color="#ffffff"/><stop offset="100%" stop-color="#e7e7e7"/></radialGradient><circle cx="0" cy="0" r="10.8" fill="url(#g27)" stroke="#b2b2b2" stroke-width="3.8"/></g>
    <g id="a28"><radialGradient id="g28" cx=".5" cy=".5" fx=".33" fy=".33" r=".66"><stop offset="0%" stop-color="#ffffff"/><stop offset="100%" stop-color="#efefef"/></radialGradient><circle cx="0" cy="0" r="10.8" fill="url(#g28)" stroke="#b2b2b2" stroke-width="3.8"/></g>
    <g id="a29"><radialGradient id="g29" cx=".5" cy=".5" fx=".33" fy=".33" r=".66"><stop offset="0%" stop-color="#ffffff"/><stop offset="100%" stop-color="#e7e7e7"/></radialGradient><circle cx="0" cy="0" r="10.8" fill="url(#g29)" stroke="#b2b2b2" stroke-width="3.8"/></g>
    <g id="a30"><radialGradient id="g30" cx=".5" cy=".5" fx=".33" fy=".33" r=".66"><stop offset="0%" stop-color="#ffffff"/><stop offset="100%" stop-color="#e2e2e2"/></radialGradient><circle cx="0" cy="0" r="10.8" fill="url(#g30)" stroke="#9e9e9e" stroke-width="3.8"/></g>
    <g id="a31"><radialGradient id="g31" cx=".5" cy=".5" fx=".33" fy=".33" r=".66"><stop offset="0%" stop-color="#ffffff"/><stop offset="100%" stop-color="#dedede"/></radialGradient><circle cx="0" cy="0" r="10.8" fill="url(#g31)" stroke="#828282" stroke-width="3.8"/></g>
    <g id="a32"><radialGradient id="g32" cx=".5" cy=".5" fx=".33" fy=".33" r=".66"><stop offset="0%" stop-color="#ffffff"/><stop offset="100%" stop-color="#d5d5d5"/></radialGradient><circle cx="0" cy="0" r="10.8" fill="url(#g32)" stroke="#444444" stroke-width="3.8"/></g>
    <g id="a33"><radialGradient id="g33" cx=".5" cy=".5" fx=".33" fy=".33" r=".66"><stop offset="0%" stop-color="#ffffff"/><stop offset="100%" stop-color="#d0d0d0"/></radialGradient><circle cx="0" cy="0" r="10.8" fill="url(#g33)" stroke="#202020" stroke-width="3.8"/></g>
    <g id="a34"><radialGradient id="g34" cx=".5" cy=".5" fx=".33" fy=".33" r=".66"><stop offset="0%" stop-color="#ffffff"/><stop offset="100%" stop-color="#cdcdcd"/></radialGradient><circle cx="0" cy="0" r="10.8" fill="url(#g34)" stroke="#0d0d0d" stroke-width="3.8"/></g>
    <g id="a35"><radialGradient id="g35" cx=".5" cy=".5" fx=".33" fy=".33" r=".66"><stop offset="0%" stop-color="#ffffff"/><stop offset="100%" stop-color="#cccccc"/></radialGradient><circle cx="0" cy="0" r="10.8" fill="url(#g35)" stroke="#000000" stroke-width="3.8"/></g>
    <g id="a36"><radialGradient id="g36" cx=".5" cy=".5" fx=".33" fy=".33" r=".66"><stop offset="0%" stop-color="#ffffff"/><stop offset="100%" stop-color="#cccccc"/></radialGradient><circle cx="0" cy="0" r="10.8" fill="url(#g36)" stroke="#000000" stroke-width="3.8"/></g>
    <g id="a37"><radialGradient id="g37" cx=".5" cy=".5" fx=".33" fy=".33" r=".66"><stop offset="0%" stop-color="#ffffff"/><stop offset="100%" stop-color="#d3d3d3"/></radialGradient><circle cx="0" cy="0" r="10.8" fill="url(#g37)" stroke="#333333" stroke-width="3.8"/></g>
    <g id="a38"><radialGradient id="g38" cx=".5" cy=".5" fx=".33" fy=".33" r=".66"><stop offset="0%" stop-color="#ffffff"/><stop offset="100%" stop-color="#cccccc"/></radialGradient><circle cx="0" cy="0" r="10.8" fill="url(#g38)" stroke="#060606" stroke-width="3.8"/></g>
    <g id="a39"><radialGradient id="g39" cx=".5" cy=".5" fx=".33" fy=".33" r=".66"><stop offset="0%" stop-color="#ffffff"/><stop offset="100%" stop-color="#d4d4d4"/></radialGradient><circle cx="0" cy="0" r="10.8" fill="url(#g39)" stroke="#3e3e3e" stroke-width="3.8"/></g>
    <g id="a40"><radialGradient id="g40" cx=".5" cy=".5" fx=".33" fy=".33" r=".66"><stop offset="0%" stop-color="#ffffff"/><stop offset="100%" stop-color="#cccccc"/></radialGradient><circle cx="0" cy="0" r="10.8" fill="url(#g40)" stroke="#000000" stroke-width="3.8"/></g>
    <g id="a41"><radialGradient id="g41" cx=".5" cy=".5" fx=".33" fy=".33" r=".66"><stop offset="0%" stop-color="#ffffff"/><stop offset="100%" stop-color="#cccccc"/></radialGradient><circle cx="0" cy="0" r="10.8" fill="url(#g41)" stroke="#000000" stroke-width="3.8"/></g>
    <g id="a42"><radialGradient id="g42" cx=".5" cy=".5" fx=".33" fy=".33" r=".66"><stop offset="0%" stop-color="#ffffff"/><stop offset="100%" stop-color="#dedede"/></radialGradient><circle cx="0" cy="0" r="10.8" fill="url(#g42)" stroke="#828282" stroke-width="3.8"/></g>
    <g id="a43"><radialGradient id="g43" cx=".5" cy=".5" fx=".33" fy=".33" r=".66"><stop offset="0%" stop-color="#ffffff"/><stop offset="100%" stop-color="#d7d7d7"/></radialGradient><circle cx="0" cy="0" r="10.8" fill="url(#g43)" stroke="#515151" stroke-width="3.8"/></g>
    <g id="a44"><radialGradient id="g44" cx=".5" cy=".5" fx=".33" fy=".33" r=".66"><stop offset="0%" stop-color="#ffffff"/><stop offset="100%" stop-color="#d7d7d7"/></radialGradient><circle cx="0" cy="0" r="10.8" fill="url(#g44)" stroke="#4f4f4f" stroke-width="3.8"/></g>
    <g id="a45"><radialGradient id="g45" cx=".5" cy=".5" fx=".33" fy=".33" r=".66"><stop offset="0%" stop-color="#ffffff"/><stop offset="100%" stop-color="#cccccc"/></radialGradient><circle cx="0" cy="0" r="10.8" fill="url(#g45)" stroke="#030303" stroke-width="3.8"/></g>
    <g id="a46"><radialGradient id="g46" cx=".5" cy=".5" fx=".33" fy=".33" r=".66"><stop offset="0%" stop-color="#ffffff"/><stop offset="100%" stop-color="#cccccc"/></radialGradient><circle cx="0" cy="0" r="10.8" fill="url(#g46)" stroke="#010101" stroke-width="3.8"/></g>
  </defs>
  <use x="233.1" y="635.2" xlink:href="#a28"/>
  <line x1="227.4" y1="636.8" x2="206.6" y2="642.6" stroke="#767676" stroke-width="9.5" stroke-linecap="round"/>
  <use x="269.5" y="331.5" xlink:href="#a27"/>
  <line x1="272.9" y1="336.4" x2="285.4" y2="354.1" stroke="#595959" stroke-width="9.5" stroke-linecap="round"/>
  <use x="138.1" y="624.6" xlink:href="#a29"/>
  <line x1="147.0" y1="627.9" x2="178.8" y2="639.5" stroke="#666666" stroke-width="9.5" stroke-linecap="round"/>
  <use x="195.6" y="645.6" xlink:href="#a11"/>
  <line x1="194.8" y1="663.8" x2="193.2" y2="698.2" stroke="#5c5c5c" stroke-width="9.5" stroke-linecap="round"/>
  <line x1="202.5" y1="637.1" x2="221.2" y2="614.1" stroke="#454545" stroke-width="9.5" stroke-linecap="round"/>
  <use x="192.7" y="707.8" xlink:href="#a30"/>
  <use x="289.5" y="424.4" xlink:href="#a26"/>
  <line x1="289.9" y1="415.0" x2="291.2" y2="381.4" stroke="#4b4b4b" stroke-width="9.5" stroke-linecap="round"/>
  <use x="282.0" y="222.4" xlink:href="#a42"/>
  <line x1="281.6" y1="220.4" x2="280.6" y2="213.7" stroke="#363636" stroke-width="9.5" stroke-linecap="round"/>
  <use x="344.6" y="605.1" xlink:href="#a31"/>
  <line x1="339.6" y1="608.2" x2="322.0" y2="619.4" stroke="#383838" stroke-width="9.5" stroke-linecap="round"/>
  <use x="292.0" y="363.4" xlink:href="#a5"/>
  <line x1="309.7" y1="358.6" x2="343.2" y2="349.6" stroke="#444444" stroke-width="9.5" stroke-linecap="round"/>
  <line x1="282.3" y1="359.6" x2="256.5" y2="349.4" stroke="#2f2f2f" stroke-width="9.5" stroke-linecap="round"/>
  <use x="352.5" y="347.1" xlink:href="#a25"/>
  <use x="411.9" y="226.1" xlink:href="#a2"/>
  <line x1="410.2" y1="223.5" x2="404.2" y2="214.0" stroke="#282828" stroke-width="9.5" stroke-linecap="round"/>
  <use x="223.7" y="523.4" xlink:href="#a9"/>
  <line x1="224.5" y1="539.8" x2="227.1" y2="587.4" stroke="#323232" stroke-width="9.5" stroke-linecap="round"/>
  <line x1="220.7" y1="516.5" x2="213.3" y2="499.0" stroke="#222222" stroke-width="9.5" stroke-linecap="round"/>
  <use x="228.0" y="605.6" xlink:href="#a10"/>
  <line x1="245.9" y1="609.8" x2="294.8" y2="621.2" stroke="#2c2c2c" stroke-width="9.5" stroke-linecap="round"/>
  <line x1="218.2" y1="607.9" x2="190.1" y2="614.3" stroke="#1b1b1b" stroke-width="9.5" stroke-linecap="round"/>
  <use x="191.5" y="127.9" xlink:href="#a43"/>
  <line x1="200.3" y1="128.7" x2="231.8" y2="131.8" stroke="#262626" stroke-width="9.5" stroke-linecap="round"/>
  <use x="286.8" y="90.7" xlink:href="#a44"/>
  <line x1="280.9" y1="97.3" x2="259.7" y2="120.9" stroke="#252525" stroke-width="9.5" stroke-linecap="round"/>
  <use x="312.6" y="625.3" xlink:href="#a12"/>
  <line x1="315.2" y1="643.5" x2="320.0" y2="677.9" stroke="#272727" stroke-width="9.5" stroke-linecap="round"/>
  <line x1="319.7" y1="617.1" x2="333.1" y2="601.6" stroke="#1c1c1c" stroke-width="9.5" stroke-linecap="round"/>
  <use x="321.3" y="687.5" xlink:href="#a32"/>
  <use x="280.1" y="210.1" xlink:href="#a21"/>
  <line x1="273.5" y1="194.2" x2="255.4" y2="150.3" stroke="#222222" stroke-width="9.5" stroke-linecap="round"/>
  <line x1="297.1" y1="209.9" x2="382.9" y2="209.1" stroke="#1f1f1f" stroke-width="11.4" stroke-linecap="round" stroke-dasharray="11.4,21.0"/>
  <line x1="271.9" y1="222.5" x2="250.5" y2="255.4" stroke="#1b1b1b" stroke-width="9.5" stroke-linecap="round"/>
  <use x="73.8" y="578.1" xlink:href="#a39"/>
  <line x1="76.9" y1="585.1" x2="88.3" y2="610.4" stroke="#1a1a1a" stroke-width="9.5" stroke-linecap="round"/>
  <use x="248.4" y="133.5" xlink:href="#a22"/>
  <line x1="247.1" y1="130.6" x2="243.4" y2="122.9" stroke="#0e0e0e" stroke-width="9.5" stroke-linecap="round"/>
  <use x="80.1" y="679.4" xlink:href="#a37"/>
  <line x1="82.3" y1="670.9" x2="90.2" y2="640.1" stroke="#171717" stroke-width="9.5" stroke-linecap="round"/>
  <use x="246.8" y="345.6" xlink:href="#a6"/>
  <line x1="240.0" y1="328.4" x2="237.3" y2="286.6" stroke="#171717" stroke-width="6.7" stroke-linecap="round" stroke-dasharray="6.7,13.4"/>
  <line x1="251.4" y1="327.7" x2="248.8" y2="285.9" stroke="#171717" stroke-width="6.7" stroke-linecap="round"/>
  <line x1="243.3" y1="361.8" x2="223.3" y2="393.1" stroke="#131313" stroke-width="6.7" stroke-linecap="round"/>
  <line x1="233.6" y1="355.7" x2="213.7" y2="386.9" stroke="#131313" stroke-width="6.7" stroke-linecap="round" stroke-dasharray="6.7,13.4"/>
  <use x="400.9" y="208.9" xlink:href="#a0"/>
  <line x1="399.5" y1="191.0" x2="396.9" y2="157.9" stroke="#161616" stroke-width="9.5" stroke-linecap="round"/>
  <line x1="419.0" y1="208.8" x2="523.4" y2="208.0" stroke="#131313" stroke-width="11.4" stroke-linecap="round" stroke-dasharray="11.4,21.0"/>
  <line x1="397.8" y1="221.7" x2="391.9" y2="245.2" stroke="#111111" stroke-width="9.5" stroke-linecap="round"/>
  <use x="396.1" y="148.4" xlink:href="#a3"/>
  <use x="241.9" y="268.7" xlink:href="#a20"/>
  <line x1="230.0" y1="269.3" x2="207.7" y2="258.5" stroke="#080808" stroke-width="6.7" stroke-linecap="round" stroke-dasharray="6.7,13.4"/>
  <line x1="235.0" y1="259.0" x2="212.7" y2="248.2" stroke="#080808" stroke-width="6.7" stroke-linecap="round"/>
  <use x="209.7" y="490.7" xlink:href="#a8"/>
  <line x1="209.8" y1="471.1" x2="210.0" y2="421.1" stroke="#0f0f0f" stroke-width="9.5" stroke-linecap="round"/>
  <line x1="205.1" y1="504.3" x2="195.6" y2="532.8" stroke="#0a0a0a" stroke-width="9.5" stroke-linecap="round"/>
  <use x="94.4" y="623.8" xlink:href="#a15"/>
  <line x1="112.5" y1="622.3" x2="162.1" y2="618.1" stroke="#0f0f0f" stroke-width="9.5" stroke-linecap="round"/>
  <line x1="85.4" y1="622.4" x2="68.4" y2="619.7" stroke="#090909" stroke-width="9.5" stroke-linecap="round"/>
  <use x="336.8" y="597.3" xlink:href="#a33"/>
  <use x="544.4" y="207.8" xlink:href="#a1"/>
  <use x="180.2" y="616.5" xlink:href="#a13"/>
  <line x1="182.8" y1="600.4" x2="189.5" y2="558.5" stroke="#080808" stroke-width="9.5" stroke-linecap="round"/>
  <line x1="186.0" y1="630.2" x2="201.9" y2="667.3" stroke="#060606" stroke-width="9.5" stroke-linecap="round"/>
  <use x="210.1" y="403.1" xlink:href="#a7"/>
  <line x1="198.1" y1="403.2" x2="176.1" y2="391.5" stroke="#040404" stroke-width="6.7" stroke-linecap="round"/>
  <line x1="203.5" y1="393.1" x2="181.5" y2="381.4" stroke="#040404" stroke-width="6.7" stroke-linecap="round" stroke-dasharray="6.7,13.4"/>
  <use x="390.2" y="251.8" xlink:href="#a4"/>
  <use x="205.2" y="736.1" xlink:href="#a34"/>
  <line x1="205.6" y1="727.6" x2="207.0" y2="697.1" stroke="#040404" stroke-width="9.5" stroke-linecap="round"/>
  <use x="191.8" y="544.0" xlink:href="#a16"/>
  <use x="242.0" y="120.1" xlink:href="#a23"/>
  <line x1="234.5" y1="103.6" x2="220.4" y2="72.6" stroke="#030303" stroke-width="9.5" stroke-linecap="round"/>
  <line x1="258.6" y1="120.8" x2="290.1" y2="122.0" stroke="#010101" stroke-width="9.5" stroke-linecap="round"/>
  <line x1="231.0" y1="132.6" x2="203.1" y2="164.3" stroke="#010101" stroke-width="9.5" stroke-linecap="round"/>
  <use x="63.6" y="619.0" xlink:href="#a38"/>
  <use x="200.8" y="248.8" xlink:href="#a19"/>
  <line x1="199.0" y1="231.4" x2="194.8" y2="191.2" stroke="#010101" stroke-width="9.5" stroke-linecap="round"/>
  <line x1="197.3" y1="265.0" x2="177.7" y2="295.7" stroke="#000000" stroke-width="6.7" stroke-linecap="round" stroke-dasharray="6.7,13.4"/>
  <line x1="187.6" y1="258.8" x2="168.0" y2="289.5" stroke="#000000" stroke-width="6.7" stroke-linecap="round"/>
  <use x="216.5" y="63.9" xlink:href="#a45"/>
  <use x="207.7" y="681.0" xlink:href="#a14"/>
  <line x1="225.0" y1="678.2" x2="257.5" y2="672.9" stroke="#010101" stroke-width="9.5" stroke-linecap="round"/>
  <line x1="196.8" y1="682.1" x2="176.2" y2="684.3" stroke="#000000" stroke-width="9.5" stroke-linecap="round"/>
  <use x="298.9" y="122.4" xlink:href="#a46"/>
  <use x="169.6" y="381.5" xlink:href="#a17"/>
  <line x1="162.7" y1="364.3" x2="159.9" y2="323.7" stroke="#000000" stroke-width="6.7" stroke-linecap="round"/>
  <line x1="174.1" y1="363.5" x2="171.3" y2="322.9" stroke="#000000" stroke-width="6.7" stroke-linecap="round" stroke-dasharray="6.7,13.4"/>
  <line x1="161.2" y1="394.5" x2="145.6" y2="418.9" stroke="#000000" stroke-width="9.5" stroke-linecap="round"/>
  <use x="266.6" y="671.4" xlink:href="#a36"/>
  <use x="193.2" y="175.6" xlink:href="#a24"/>
  <use x="164.4" y="305.7" xlink:href="#a18"/>
  <line x1="155.1" y1="300.7" x2="137.6" y2="291.5" stroke="#000000" stroke-width="9.5" stroke-linecap="round"/>
  <use x="170.4" y="684.9" xlink:href="#a35"/>
  <use x="141.2" y="425.7" xlink:href="#a40"/>
  <use x="132.7" y="288.8" xlink:href="#a41"/>
</svg>