<svg xmlns="http://www.w3.org/2000/svg" xmlns:xlink="http://www.w3.org/1999/xlink" width="634" height="800">
  <rect width="100%" height="100%" fill="#ffffff"/>
  <defs>
    <g id="a0"><radialGradient id="g0" cx=".5" cy=".5" fx=".33" fy=".33" r=".66"><stop offset="0%" stop-color="#cbcbcb"/><stop offset="100%" stop-color="#989898"/></radialGradient><circle cx="0" cy="0" r="20.5" fill="url(#g0)" stroke="#323232" stroke-width="3.8"/></g>
    <g id="a1"><radialGradient id="g1" cx=".5" cy=".5" fx=".33" fy=".33" r=".66"><stop offset="0%" stop-color="#b755b7"/><stop offset="100%" stop-color="#7d0d7d"/></radialGradient><circle cx="0" cy="0" r="23.9" fill="url(#g1)" stroke="#131313" stroke-width="3.8"/></g>
    <g id="a2"><radialGradient id="g2" cx=".5" cy=".5" fx=".33" fy=".33" r=".66"><stop offset="0%" stop-color="#ffffff"/><stop offset="100%" stop-color="#dcdcdc"/></radialGradient><circle cx="0" cy="0" r="10.8" fill="url(#g2)" stroke="#757575" stroke-width="3.8"/></g>
    <g id="a3"><radialGradient id="g3" cx=".5" cy=".5" fx=".33" fy=".33" r=".66"><stop offset="0%" stop-color="#ffffff"/><stop offset="100%" stop-color="#d2d2d2"/></radialGradient><circle cx="0" cy="0" r="10.8" fill="url(#g3)" stroke="#2c2c2c" stroke-width="3.8"/></g>
    <g id="a4"><radialGradient id="g4" cx=".5" cy=".5" fx=".33" fy=".33" r=".66"><stop offset="0%" stop-color="#ffffff"/><stop offset="100%" stop-color="#cecece"/></radialGradient><circle cx="0" cy="0" r="10.8" fill="url(#g4)" stroke="#101010" stroke-width="3.8"/></g>
    <g id="a5"><radialGradient id="g5" cx=".5" cy=".5" fx=".33" fy=".33" r=".66"><stop offset="0%" stop-color="#d9d9d9"/><stop offset="100%" stop-color="#b5b5b5"/></radialGradient><circle cx="0" cy="0" r="20.5" fill="url(#g5)" stroke="#8b8b8b" stroke-width="3.8"/></g>
    <g id="a6"><radialGradient id="g6" cx=".5" cy=".5" fx=".33" fy=".33" r=".66"><stop offset="0%" stop-color="#cccccc"/><stop offset="100%" stop-color="#999999"/></radialGradient><circle cx="0" cy="0" r="20.5" fill="url(#g6)" stroke="#373737" stroke-width="3.8"/></g>
    <g id="a7"><radialGradient id="g7" cx=".5" cy=".5" fx=".33" fy=".33" r=".66"><stop offset="0%" stop-color="#c6c6c6"/><stop offset="100%" stop-color="#8e8e8e"/></radialGradient><circle cx="0" cy="0" r="20.5" fill="url(#g7)" stroke="#131313" stroke-width="3.8"/></g>
    <g id="a8"><radialGradient id="g8" cx=".5" cy=".5" fx=".33" fy=".33" r=".66"><stop offset="0%" stop-color="#ffcece"/><stop offset="100%" stop-color="#cf9797"/></radialGradient><circle cx="0" cy="0" r="22.4" fill="url(#g8)" stroke="#191919" stroke-width="3.8"/></g>
    <g id="a9"><radialGradient id="g9" cx=".5" cy=".5" fx=".33" fy=".33" r=".66"><stop offset="0%" stop-color="#ff7c7c"/><stop offset="100%" stop-color="#d74343"/></radialGradient><circle cx="0" cy="0" r="18.4" fill="url(#g9)" stroke="#545454" stroke-width="3.8"/></g>
    <g id="a10"><radialGradient id="g10" cx=".5" cy=".5" fx=".33" fy=".33" r=".66"><stop offset="0%" stop-color="#cdcdcd"/><stop offset="100%" stop-color="#9c9c9c"/></radialGradient><circle cx="0" cy="0" r="20.5" fill="url(#g10)" stroke="#3d3d3d" stroke-width="3.8"/></g>
    <g id="a11"><radialGradient id="g11" cx=".5" cy=".5" fx=".33" fy=".33" r=".66"><stop offset="0%" stop-color="#dcdcdc"/><stop offset="100%" stop-color="#bababa"/></radialGradient><circle cx="0" cy="0" r="20.5" fill="url(#g11)" stroke="#999999" stroke-width="3.8"/></g>
    <g id="a12"><radialGradient id="g12" cx=".5" cy=".5" fx=".33" fy=".33" r=".66"><stop offset="0%" stop-color="#c9c9c9"/><stop offset="100%" stop-color="#949494"/></radialGradient><circle cx="0" cy="0" r="20.5" fill="url(#g12)" stroke="#262626" stroke-width="3.8"/></g>
    <g id="a13"><radialGradient id="g13" cx=".5" cy=".5" fx=".33" fy=".33" r=".66"><stop offset="0%" stop-color="#c4c4c4"/><stop offset="100%" stop-color="#8b8b8b"/></radialGradient><circle cx="0" cy="0" r="20.5" fill="url(#g13)" stroke="#0a0a0a" stroke-width="3.8"/></g>
    <g id="a14"><radialGradient id="g14" cx=".5" cy=".5" fx=".33" fy=".33" r=".66"><stop offset="0%" stop-color="#c3c3c3"/><stop offset="100%" stop-color="#888888"/></radialGradient><circle cx="0" cy="0" r="20.5" fill="url(#g14)" stroke="#000000" stroke-width="3.8"/></g>
    <g id="a15"><radialGradient id="g15" cx=".5" cy=".5" fx=".33" fy=".33" r=".66"><stop offset="0%" stop-color="#c7c7c7"/><stop offset="100%" stop-color="#909090"/></radialGradient><circle cx="0" cy="0" r="20.5" fill="url(#g15)" stroke="#181818" stroke-width="3.8"/></g>
    <g id="a16"><radialGradient id="g16" cx=".5" cy=".5" fx=".33" fy=".33" r=".66"><stop offset="0%" stop-color="#ff5555"/><stop offset="100%" stop-color="#cc0a0a"/></radialGradient><circle cx="0" cy="0" r="18.4" fill="url(#g16)" stroke="#010101" stroke-width="3.8"/></g>
    <g id="a17"><radialGradient id="g17" cx=".5" cy=".5" fx=".33" fy=".33" r=".66"><stop offset="0%" stop-color="#c3c3c3"/><stop offset="100%" stop-color="#888888"/></radialGradient><circle cx="0" cy="0" r="20.5" fill="url(#g17)" stroke="#000000" stroke-width="3.8"/></g>
    <g id="a18"><radialGradient id="g18" cx=".5" cy=".5" fx=".33" fy=".33" r=".66"><stop offset="0%" stop-color="#c3c3c3"/><stop offset="100%" stop-color="#888888"/></radialGradient><circle cx="0" cy="0" r="20.5" fill="url(#g18)" stroke="#000000" stroke-width="3.8"/></g>
    <g id="a19"><radialGradient id="g19" cx=".5" cy=".5" fx=".33" fy=".33" r=".66"><stop offset="0%" stop-color="#c3c3c3"/><stop offset="100%" stop-color="#898989"/></radialGradient><circle cx="0" cy="0" r="20.5" fill="url(#g19)" stroke="#050505" stroke-width="3.8"/></g>
    <g id="a20"><radialGradient id="g20" cx=".5" cy=".5" fx=".33" fy=".33" r=".66"><stop offset="0%" stop-color="#c9c9c9"/><stop offset="100%" stop-color="#959595"/></radialGradient><circle cx="0" cy="0" r="20.5" fill="url(#g20)" stroke="#292929" stroke-width="3.8"/></g>
    <g id="a21"><radialGradient id="g21" cx=".5" cy=".5" fx=".33" fy=".33" r=".66"><stop offset="0%" stop-color="#91a1fb"/><stop offset="100%" stop-color="#5a6ed3"/></radialGradient><circle cx="0" cy="0" r="19.3" fill="url(#g21)" stroke="#585858" stroke-width="3.8"/></g>
    <g id="a22"><radialGradient id="g22" cx=".5" cy=".5" fx=".33" fy=".33" r=".66"><stop offset="0%" stop-color="#d0d0d0"/><stop offset="100%" stop-color="#a3a3a3"/></radialGradient><circle cx="0" cy="0" r="20.5" fill="url(#g22)" stroke="#545454" stroke-width="3.8"/></g>
    <g id="a23"><radialGradient id="g23" cx=".5" cy=".5" fx=".33" fy=".33" r=".66"><stop offset="0%" stop-color="#c5c5c5"/><stop offset="100%" stop-color="#8c8c8c"/></radialGradient><circle cx="0" cy="0" r="20.5" fill="url(#g23)" stroke="#0d0d0d" stroke-width="3.8"/></g>
    <g id="a24"><radialGradient id="g24" cx=".5" cy=".5" fx=".33" fy=".33" r=".66"><stop offset="0%" stop-color="#ff5555"/><stop offset="100%" stop-color="#cc0b0b"/></radialGradient><circle cx="0" cy="0" r="18.4" fill="url(#g24)" stroke="#010101" stroke-width="3.8"/></g>
    <g id="a25"><radialGradient id="g25" cx=".5" cy=".5" fx=".33" fy=".33" r=".66"><stop offset="0%" stop-color="#ffffff"/><stop offset="100%" stop-color="#dddddd"/></radialGradient><circle cx="0" cy="0" r="10.8" fill="url(#g25)" stroke="#7d7d7d" stroke-width="3.8"/></g>
    <g id="a26"><radialGradient id="g26" cx=".5" cy=".5" fx=".33" fy=".33" r=".66"><stop offset="0%" stop-color="#ffffff"/><stop offset="100%" stop-color="#e1e1e1"/></radialGradient><circle cx="0" cy="0" r="10.8" fill="url(#g26)" stroke="#969696" stroke-width="3.8"/></g>
    <g id="a27"><radialGradient id="g27" cx=".5" cy=".5" fx=".33" fy=".33" r=".66"><stop offset="0%" stop-color="#ffffff"/><stop offset="100%" stop-color="#ededed"/></radialGradient><circle cx="0" cy="0" r="10.8" fill="url(#g27)" stroke="#b2b2b2" stroke-width="3.8"/></g>
    <g id="a28"><radialGradient id="g28" cx=".5" cy=".5" fx=".33" fy=".33" r=".66"><stop offset="0%" stop-color="#ffffff"/><stop offset="100%" stop-color="#ececec"/></radialGradient><circle cx="0" cy="0" r="10.8" fill="url(#g28)" stroke="#b2b2b2" stroke-width="3.8"/></g>
    <g id="a29"><radialGradient id="g29" cx=".5" cy=".5" fx=".33" fy=".33" r=".66"><stop offset="0%" stop-color="#ffffff"/><stop offset="100%" stop-color="#e7e7e7"/></radialGradient><circle cx="0" cy="0" r="10.8" fill="url(#g29)" stroke="#b2b2b2" stroke-width="3.8"/></g>
    <g id="a30"><radialGradient id="g30" cx=".5" cy=".5" fx=".33" fy=".33" r=".66"><stop offset="0%" stop-color="#ffffff"/><stop offset="100%" stop-color="#dddddd"/></radialGradient><circle cx="0" cy="0" r="10.8" fill="url(#g30)" stroke="#808080" stroke-width="3.8"/></g>
    <g id="a31"><radialGradient id="g31" cx=".5" cy=".5" fx=".33" fy=".33" r=".66"><stop offset="0%" stop-color="#ffffff"/><stop offset="100%" stop-color="#d8d8d8"/></radialGradient><circle cx="0" cy="0" r="10.8" fill="url(#g31)" stroke="#585858" stroke-width="3.8"/></g>
    <g id="a32"><radialGradient id="g32" cx=".5" cy=".5" fx=".33" fy=".33" r=".66"><stop offset="0%" stop-color="#ffffff"/><stop offset="100%" stop-color="#d0d0d0"/></radialGradient><circle cx="0" cy="0" r="10.8" fill="url(#g32)" stroke="#1c1c1c" stroke-width="3.8"/></g>
    <g id="a33"><radialGradient id="g33" cx=".5" cy=".5" fx=".33" fy=".33" r=".66"><stop offset="0%" stop-color="#ffffff"/><stop offset="100%" stop-color="#cdcdcd"/></radialGradient><circle cx="0" cy="0" r="10.8" fill="url(#g33)" stroke="#080808" stroke-width="3.8"/></g>
    <g id="a34"><radialGradient id="g34" cx=".5" cy=".5" fx=".33" fy=".33" r=".66"><stop offset="0%" stop-color="#ffffff"/><stop offset="100%" stop-color="#cccccc"/></radialGradient><circle cx="0" cy="0" r="10.8" fill="url(#g34)" stroke="#000000" stroke-width="3.8"/></g>
    <g id="a35"><radialGradient id="g35" cx=".5" cy=".5" fx=".33" fy=".33" r=".66"><stop offset="0%" stop-color="#ffffff"/><stop offset="100%" stop-color="#cccccc"/></radialGradient><circle cx="0" cy="0" r="10.8" fill="url(#g35)" stroke="#000000" stroke-width="3.8"/></g>
    <g id="a36"><radialGradient id="g36" cx=".5" cy=".5" fx=".33" fy=".33" r=".66"><stop offset="0%" stop-color="#ffffff"/><stop offset="100%" stop-color="#cccccc"/></radialGradient><circle cx="0" cy="0" r="10.8" fill="url(#g36)" stroke="#000000" stroke-width="3.8"/></g>
    <g id="a37"><radialGradient id="g37" cx=".5" cy=".5" fx=".33" fy=".33" r=".66"><stop offset="0%" stop-color="#ffffff"/><stop offset="100%" stop-color="#d1d1d1"/></radialGradient><circle cx="0" cy="0" r="10.8" fill="url(#g37)" stroke="#282828" stroke-width="3.8"/></g>
    <g id="a38"><radialGradient id="g38" cx=".5" cy=".5" fx=".33" fy=".33" r=".66"><stop offset="0%" stop-color="#ffffff"/><stop offset="100%" stop-color="#cccccc"/></radialGradient><circle cx="0" cy="0" r="10.8" fill="url(#g38)" stroke="#030303" stroke-width="3.8"/></g>
    <g id="a39"><radialGradient id="g39" cx=".5" cy=".5" fx=".33" fy=".33" r=".66"><stop offset="0%" stop-color="#ffffff"/><stop offset="100%" stop-color="#d4d4d4"/></radialGradient><circle cx="0" cy="0" r="10.8" fill="url(#g39)" stroke="#404040" stroke-width="3.8"/></g>
    <g id="a40"><radialGradient id="g40" cx=".5" cy=".5" fx=".33" fy=".33" r=".66"><stop offset="0%" stop-color="#ffffff"/><stop offset="100%" stop-color="#cccccc"/></radialGradient><circle cx="0" cy="0" r="10.8" fill="url(#g40)" stroke="#000000" stroke-width="3.8"/></g>
    <g id="a41"><radialGradient id="g41" cx=".5" cy=".5" fx=".33" fy=".33" r=".66"><stop offset="0%" stop-color="#ffffff"/><stop offset="100%" stop-color="#cccccc"/></radialGradient><circle cx="0" cy="0" r="10.8" fill="url(#g41)" stroke="#000000" stroke-width="3.8"/></g>
    <g id="a42"><radialGradient id="g42" cx=".5" cy=".5" fx=".33" fy=".33" r=".66"><stop offset="0%" stop-color="#ffffff"/><stop offset="100%" stop-color="#e3e3e3"/></radialGradient><circle cx="0" cy="0" r="10.8" fill="url(#g42)" stroke="#a9a9a9" stroke-width="3.8"/></g>
    <g id="a43"><radialGradient id="g43" cx=".5" cy=".5" fx=".33" fy=".33" r=".66"><stop offset="0%" stop-color="#ffffff"/><stop offset="100%" stop-color="#dddddd"/></radialGradient><circle cx="0" cy="0" r="10.8" fill="url(#g43)" stroke="#7e7e7e" stroke-width="3.8"/></g>
    <g id="a44"><radialGradient id="g44" cx=".5" cy=".5" fx=".33" fy=".33" r=".66"><stop offset="0%" stop-color="#ffffff"/><stop offset="100%" stop-color="#dcdcdc"/></radialGradient><circle cx="0" cy="0" r="10.8" fill="url(#g44)" stroke="#787878" stroke-width="3.8"/></g>
    <g id="a45"><radialGradient id="g45" cx=".5" cy=".5" fx=".33" fy=".33" r=".66"><stop offset="0%" stop-color="#ffffff"/><stop offset="100%" stop-color="#cdcdcd"/></radialGradient><circle cx="0" cy="0" r="10.8" fill="url(#g45)" stroke="#0b0b0b" stroke-width="3.8"/></g>
    <g id="a46"><radialGradient id="g46" cx=".5" cy=".5" fx=".33" fy=".33" r=".66"><stop offset="0%" stop-color="#ffffff"/><stop offset="100%" stop-color="#cccccc"/></radialGradient><circle cx="0" cy="0" r="10.8" fill="url(#g46)" stroke="#020202" stroke-width="3.8"/></g>
  </defs>
  <use x="296.3" y="354.8" xlink:href="#a27"/>
  <line x1="299.2" y1="359.0" x2="309.4" y2="373.9" stroke="#676767" stroke-width="9.6" stroke-linecap="round"/>
  <use x="262.9" y="661.8" xlink:href="#a28"/>
  <line x1="256.1" y1="662.3" x2="231.5" y2="664.2" stroke="#6c6c6c" stroke-width="9.6" stroke-linecap="round"/>
  <use x="164.3" y="644.4" xlink:href="#a29"/>
  <line x1="172.7" y1="647.6" x2="202.6" y2="659.1" stroke="#616161" stroke-width="9.6" stroke-linecap="round"/>
  <use x="310.7" y="241.4" xlink:href="#a42"/>
  <line x1="309.8" y1="238.4" x2="306.8" y2="228.6" stroke="#464646" stroke-width="9.6" stroke-linecap="round"/>
  <use x="218.6" y="665.2" xlink:href="#a11"/>
  <line x1="216.6" y1="683.0" x2="212.8" y2="716.6" stroke="#4f4f4f" stroke-width="9.6" stroke-linecap="round"/>
  <line x1="223.7" y1="655.2" x2="237.8" y2="628.0" stroke="#393939" stroke-width="9.6" stroke-linecap="round"/>
  <use x="311.7" y="444.0" xlink:href="#a26"/>
  <line x1="312.2" y1="434.4" x2="313.9" y2="400.1" stroke="#515151" stroke-width="9.6" stroke-linecap="round"/>
  <use x="314.8" y="381.7" xlink:href="#a5"/>
  <line x1="332.6" y1="377.1" x2="366.1" y2="368.2" stroke="#4a4a4a" stroke-width="9.6" stroke-linecap="round"/>
  <line x1="304.3" y1="376.1" x2="276.1" y2="360.9" stroke="#333333" stroke-width="9.6" stroke-linecap="round"/>
  <use x="211.7" y="725.9" xlink:href="#a30"/>
  <use x="221.4" y="139.1" xlink:href="#a43"/>
  <line x1="229.8" y1="139.9" x2="260.2" y2="142.8" stroke="#3a3a3a" stroke-width="9.6" stroke-linecap="round"/>
  <use x="375.4" y="365.8" xlink:href="#a25"/>
  <use x="318.3" y="105.8" xlink:href="#a44"/>
  <line x1="311.8" y1="111.7" x2="288.5" y2="133.0" stroke="#393939" stroke-width="9.6" stroke-linecap="round"/>
  <use x="441.1" y="246.9" xlink:href="#a2"/>
  <line x1="438.9" y1="243.2" x2="431.4" y2="230.4" stroke="#2d2d2d" stroke-width="9.6" stroke-linecap="round"/>
  <use x="305.1" y="223.1" xlink:href="#a21"/>
  <line x1="299.1" y1="206.8" x2="282.6" y2="161.7" stroke="#303030" stroke-width="9.6" stroke-linecap="round"/>
  <line x1="296.0" y1="234.4" x2="271.8" y2="263.9" stroke="#232323" stroke-width="9.6" stroke-linecap="round"/>
  <use x="364.1" y="625.1" xlink:href="#a31"/>
  <line x1="358.0" y1="627.1" x2="336.3" y2="634.6" stroke="#222222" stroke-width="9.6" stroke-linecap="round"/>
  <use x="243.5" y="537.4" xlink:href="#a9"/>
  <line x1="243.4" y1="553.5" x2="243.1" y2="600.1" stroke="#282828" stroke-width="9.6" stroke-linecap="round"/>
  <line x1="238.9" y1="528.7" x2="227.3" y2="506.7" stroke="#1c1c1c" stroke-width="9.6" stroke-linecap="round"/>
  <use x="276.2" y="144.3" xlink:href="#a22"/>
  <line x1="273.7" y1="139.6" x2="267.1" y2="126.9" stroke="#171717" stroke-width="9.6" stroke-linecap="round"/>
  <use x="88.0" y="584.0" xlink:href="#a39"/>
  <line x1="90.1" y1="590.4" x2="97.5" y2="613.5" stroke="#171717" stroke-width="9.6" stroke-linecap="round"/>
  <use x="243.0" y="618.0" xlink:href="#a10"/>
  <line x1="260.2" y1="622.3" x2="307.5" y2="634.2" stroke="#1b1b1b" stroke-width="9.6" stroke-linecap="round"/>
  <line x1="231.0" y1="618.2" x2="196.9" y2="618.7" stroke="#111111" stroke-width="9.6" stroke-linecap="round"/>
  <use x="265.6" y="355.3" xlink:href="#a6"/>
  <line x1="259.1" y1="337.4" x2="257.1" y2="294.3" stroke="#1a1a1a" stroke-width="6.7" stroke-linecap="round" stroke-dasharray="6.7,13.4"/>
  <line x1="270.6" y1="336.9" x2="268.6" y2="293.8" stroke="#1a1a1a" stroke-width="6.7" stroke-linecap="round"/>
  <line x1="260.5" y1="370.7" x2="237.7" y2="398.7" stroke="#131313" stroke-width="6.7" stroke-linecap="round"/>
  <line x1="251.6" y1="363.4" x2="228.8" y2="391.5" stroke="#131313" stroke-width="6.7" stroke-linecap="round" stroke-dasharray="6.7,13.4"/>
  <use x="427.4" y="223.5" xlink:href="#a0"/>
  <line x1="426.2" y1="205.2" x2="423.9" y2="171.3" stroke="#1a1a1a" stroke-width="9.6" stroke-linecap="round"/>
  <line x1="445.2" y1="223.5" x2="549.5" y2="223.5" stroke="#121212" stroke-width="11.5" stroke-linecap="round" stroke-dasharray="11.5,21.0"/>
  <line x1="422.6" y1="234.8" x2="413.8" y2="255.7" stroke="#111111" stroke-width="9.6" stroke-linecap="round"/>
  <use x="423.3" y="161.7" xlink:href="#a3"/>
  <use x="262.1" y="275.9" xlink:href="#a20"/>
  <line x1="248.7" y1="274.3" x2="224.4" y2="259.2" stroke="#0a0a0a" stroke-width="6.7" stroke-linecap="round" stroke-dasharray="6.7,13.4"/>
  <line x1="254.8" y1="264.6" x2="230.5" y2="249.4" stroke="#0a0a0a" stroke-width="6.7" stroke-linecap="round"/>
  <use x="88.4" y="683.7" xlink:href="#a37"/>
  <line x1="90.4" y1="674.7" x2="97.6" y2="642.6" stroke="#121212" stroke-width="9.6" stroke-linecap="round"/>
  <use x="324.8" y="638.5" xlink:href="#a12"/>
  <line x1="326.4" y1="656.5" x2="329.3" y2="690.5" stroke="#121212" stroke-width="9.6" stroke-linecap="round"/>
  <line x1="330.1" y1="628.8" x2="340.2" y2="610.4" stroke="#0b0b0b" stroke-width="9.6" stroke-linecap="round"/>
  <use x="330.2" y="700.0" xlink:href="#a32"/>
  <use x="221.7" y="496.2" xlink:href="#a8"/>
  <line x1="222.2" y1="476.2" x2="223.3" y2="425.2" stroke="#0c0c0c" stroke-width="9.6" stroke-linecap="round"/>
  <line x1="214.7" y1="508.0" x2="200.1" y2="532.8" stroke="#050505" stroke-width="9.6" stroke-linecap="round"/>
  <use x="101.4" y="625.6" xlink:href="#a15"/>
  <line x1="119.1" y1="624.2" x2="167.3" y2="620.3" stroke="#090909" stroke-width="9.6" stroke-linecap="round"/>
  <line x1="90.4" y1="622.1" x2="69.6" y2="615.4" stroke="#060606" stroke-width="9.6" stroke-linecap="round"/>
  <use x="570.2" y="223.5" xlink:href="#a1"/>
  <use x="223.7" y="406.8" xlink:href="#a7"/>
  <line x1="210.4" y1="404.8" x2="186.3" y2="388.6" stroke="#030303" stroke-width="6.7" stroke-linecap="round"/>
  <line x1="216.8" y1="395.3" x2="192.7" y2="379.1" stroke="#030303" stroke-width="6.7" stroke-linecap="round" stroke-dasharray="6.7,13.4"/>
  <use x="411.3" y="261.6" xlink:href="#a4"/>
  <use x="264.6" y="122.2" xlink:href="#a23"/>
  <line x1="257.6" y1="105.1" x2="244.5" y2="72.9" stroke="#070707" stroke-width="9.6" stroke-linecap="round"/>
  <line x1="280.6" y1="122.7" x2="311.0" y2="123.7" stroke="#030303" stroke-width="9.6" stroke-linecap="round"/>
  <line x1="252.5" y1="133.5" x2="221.8" y2="162.0" stroke="#030303" stroke-width="9.6" stroke-linecap="round"/>
  <use x="240.9" y="63.9" xlink:href="#a45"/>
  <use x="185.0" y="618.9" xlink:href="#a13"/>
  <line x1="187.1" y1="601.9" x2="192.5" y2="557.8" stroke="#020202" stroke-width="9.6" stroke-linecap="round"/>
  <line x1="188.7" y1="631.3" x2="198.9" y2="665.2" stroke="#010101" stroke-width="9.6" stroke-linecap="round"/>
  <use x="343.0" y="605.3" xlink:href="#a33"/>
  <use x="217.2" y="247.9" xlink:href="#a19"/>
  <line x1="215.7" y1="229.9" x2="212.3" y2="188.3" stroke="#010101" stroke-width="9.6" stroke-linecap="round"/>
  <line x1="212.1" y1="263.3" x2="189.7" y2="290.8" stroke="#000000" stroke-width="6.7" stroke-linecap="round" stroke-dasharray="6.7,13.4"/>
  <line x1="203.2" y1="256.0" x2="180.8" y2="283.6" stroke="#000000" stroke-width="6.7" stroke-linecap="round"/>
  <use x="63.8" y="613.6" xlink:href="#a38"/>
  <use x="319.5" y="124.0" xlink:href="#a46"/>
  <use x="210.9" y="172.1" xlink:href="#a24"/>
  <use x="194.4" y="542.5" xlink:href="#a16"/>
  <use x="202.1" y="736.1" xlink:href="#a34"/>
  <line x1="202.1" y1="727.1" x2="202.5" y2="694.8" stroke="#000000" stroke-width="9.6" stroke-linecap="round"/>
  <use x="179.3" y="377.1" xlink:href="#a17"/>
  <line x1="172.7" y1="359.2" x2="170.7" y2="317.4" stroke="#000000" stroke-width="6.7" stroke-linecap="round"/>
  <line x1="184.2" y1="358.7" x2="182.2" y2="316.8" stroke="#000000" stroke-width="6.7" stroke-linecap="round" stroke-dasharray="6.7,13.4"/>
  <line x1="169.7" y1="388.8" x2="151.9" y2="410.6" stroke="#000000" stroke-width="9.6" stroke-linecap="round"/>
  <use x="175.6" y="299.0" xlink:href="#a18"/>
  <line x1="165.4" y1="292.1" x2="146.4" y2="279.4" stroke="#000000" stroke-width="9.6" stroke-linecap="round"/>
  <use x="202.6" y="677.7" xlink:href="#a14"/>
  <line x1="219.1" y1="674.7" x2="250.2" y2="669.0" stroke="#000000" stroke-width="9.6" stroke-linecap="round"/>
  <line x1="189.8" y1="676.9" x2="165.4" y2="675.3" stroke="#000000" stroke-width="9.6" stroke-linecap="round"/>
  <use x="146.8" y="416.7" xlink:href="#a40"/>
  <use x="258.9" y="667.4" xlink:href="#a36"/>
  <use x="141.0" y="275.8" xlink:href="#a41"/>
  <use x="158.7" y="674.9" xlink:href="#a35"/>
</svg>